<svg xmlns="http://www.w3.org/2000/svg" xmlns:xlink="http://www.w3.org/1999/xlink" width="234.418" height="183.422" viewBox="0 0 234.418 183.422">
  <defs>
    <linearGradient id="linear-gradient" y1="0.5" x2="1" y2="0.5" gradientUnits="objectBoundingBox">
      <stop offset="0" stop-color="gray" stop-opacity="0.251"/>
      <stop offset="0.54" stop-color="gray" stop-opacity="0.122"/>
      <stop offset="1" stop-color="gray" stop-opacity="0.102"/>
    </linearGradient>
  </defs>
  <g id="empty" transform="translate(0.004 -0.003)">
    <ellipse id="Ellipse_33" data-name="Ellipse 33" cx="40.891" cy="7.746" rx="40.891" ry="7.746" transform="translate(41.336 164.38)" fill="#020887" opacity="0.1"/>
    <path id="Path_117" data-name="Path 117" d="M231.425,80.9c-15.028-.52-29.341-5.373-43.008-10.681s-27.2-11.187-41.873-14c-9.434-1.809-20.225-2.067-27.825,2.986-7.317,4.876-9.68,13.27-10.951,21.065-.957,5.865-1.519,12.04,1.1,17.531,1.82,3.813,5.048,7.017,7.282,10.67,7.772,12.706,2.278,28.375-6.142,40.782-3.947,5.819-8.533,11.378-11.582,17.566s-4.458,13.3-1.79,19.633c2.642,6.269,8.942,10.969,15.766,14.278,13.86,6.722,30.186,8.645,46.118,9.736,35.255,2.41,70.7,1.368,106.044.32,13.082-.385,26.22-.778,39.089-2.8,7.147-1.124,14.524-2.907,19.714-7.212,6.585-5.464,8.218-14.715,3.8-21.565-7.4-11.494-27.864-14.348-33.045-26.68-2.847-6.79.077-14.35,4.217-20.645,8.879-13.507,23.761-25.356,24.544-40.793.539-10.6-6.615-21.221-17.678-26.239-11.594-5.259-27.674-4.6-36.223,4.108C260.173,77.914,244.695,81.362,231.425,80.9Z" transform="translate(-95.23 -55.03)" fill="#020887" opacity="0.1"/>
    <path id="Path_118" data-name="Path 118" d="M390.6,212.823l-7.112-4.795h0l3.588-5.341-18.785-1.5-6.75,5.22-8.45-4.737-7.047.848-.084-1.858a52.416,52.416,0,0,0-.583-5.782c.03-.58.051-1.247.049-1.971,0-3.053-.413-7.1-2.229-9.8l.418-3.757-3.39-4.005a25.638,25.638,0,0,1,1.858-3.125c.116-.167.232-.33.358-.488a8.431,8.431,0,0,0,7.872-8.359,5.342,5.342,0,0,0-.023-.611,2.2,2.2,0,0,0-.026-.246c.43.232.864.464,1.3.7.081.116.174.232.276.369h0l.021.026.13.16.042.049c.046.056.1.109.144.165l.033.037c.123.137.253.276.392.413a.414.414,0,0,1,.046.044l.174.163.049.044c.149.132.307.26.464.381l.051.037.2.137.065.042c.077.046.156.1.232.139l.028.016c.091.049.183.1.276.139l.046.019.232.1.072.026c.081.028.16.053.244.077l.051.014c.1.026.2.046.309.063h.012a2.528,2.528,0,0,0,.3.03h.067a2.548,2.548,0,0,0,.267,0h.058a2.746,2.746,0,0,0,.332-.039,3.664,3.664,0,0,0,1.463-.525,1.278,1.278,0,0,0,.3-.276,1.1,1.1,0,0,0-.046-1.275h0c-.181-.432-1.356-.736-1.356-.736s-3.715-1.551-3.715-2.786-.929-7.644-10.516-9.109c0,0-6.237-.351-7.99,2.988l-.037.39c-.515.323-.943.971-1.451,1.161a2.371,2.371,0,0,0-.629.232v-.044h0a.6.6,0,0,0-.142.183,1.857,1.857,0,0,0-.193.7,2.623,2.623,0,0,1-.3.843,1.869,1.869,0,0,1-.139.214h0l-.039.063a1.7,1.7,0,0,0,.789-.128,3.932,3.932,0,0,1-.232.929.771.771,0,0,0,.715-.427v-.019l.03-.042a1.959,1.959,0,0,0,.144-.337l-.026.028c.046-.151.088-.3.139-.453a.71.71,0,0,1,.114-.232.562.562,0,0,1,.481-.16l-.1,2.013h.042a2.749,2.749,0,0,1-.2.423c-.33.534-.929.9-1.149,1.484a2.183,2.183,0,0,0-.107.878c0,.174.021.351.035.525v-.014a1.958,1.958,0,0,1-.209,1.279c-.172.255-.448.448-.543.738a.719.719,0,0,0-.035.251,2.817,2.817,0,0,0,.158.745.032.032,0,0,0,0-.014,1.132,1.132,0,0,1,.039.548c-.1.464-.669.852-.641,1.3a.5.5,0,0,0,.026.172.94.94,0,0,0,.525.464,2.043,2.043,0,0,0,1.18.26,1.551,1.551,0,0,0,.441-.151c-.163.374-.33.743-.5,1.094-.026.056-.053.111-.081.167,0,0-1.435-.959-2.25,1a4.338,4.338,0,0,0-.5,1.31,3.114,3.114,0,0,1-.172.539,3.466,3.466,0,0,1-1.551,1.393c-1.663.762-8.378,9.137-8.5,11.306a12.648,12.648,0,0,1-.427,2.5,14.9,14.9,0,0,0-.4,5.919,11.325,11.325,0,0,0,.411,1.888,42.289,42.289,0,0,1,1.189,6.209l.771,7.017a19.969,19.969,0,0,0,.125,2.9c-.787.9-3.947,4.644-2.74,5.663.929.8,2.554.671,3.467.506a29.5,29.5,0,0,0-2.139,7.479c-.232,3.36.4,7.811,1.393,9.52s4.317,6.093,4.317,6.093-.156,6.014,1.031,8.2,1.665,6.718,1.665,6.718,1.108,3.827.553,5.234,1.029,2.577-.634,3.513-3.79,22.027-3.79,22.027-.857,13.823,0,14.527a.873.873,0,0,0,.146.086v4.644s-.594.975,1.823,1.173c1.656.132,6.348.432,9.133.606l2.157.135s5.108,1.017,7.365,0,6.258-.994,5.663-3.68a7.644,7.644,0,0,0-.316-1.075c-.652-1.667-1.76-1.858-3.8-2.322-.118-.026-.232-.049-.337-.067-2.15-.374-2.856.627-4.061-.676-1.047-1.126-4.382-2.387-5.517-2.786.028-.084.063-.165.091-.251a1.7,1.7,0,0,1-.862-.42l3.077.2,1.832.114s4.342.866,6.269,0,5.317-.843,4.811-3.125a6.55,6.55,0,0,0-.267-.915c-.555-1.416-1.5-1.572-3.232-1.964-.1-.021-.193-.042-.286-.058-1.827-.318-2.426.532-3.451-.574-.878-.943-3.648-2-4.644-2.359,0-.515-.7-1.249-1.135-1.985-.516-.859.437-3.866.437-3.866l.543-12.476a2.409,2.409,0,0,1,.65-.186s2.457-2.345,1.9-4.844a16.058,16.058,0,0,1-.176-2.283,11.729,11.729,0,0,0,2.236-2.54c.516-1.112,0-6.5,0-6.5V232.047l4.11.416,3.729.383,1.135.116,3.729.376,8.571.866,7.723-1.463,3.341-.632,6.871-1.3V214ZM334.03,157.116l-.478-.051C333.71,157.072,333.877,157.1,334.03,157.116Z" transform="translate(-266.344 -128.824)" fill="url(#linear-gradient)"/>
    <path id="Path_119" data-name="Path 119" d="M499.01,435.963c-2.322,3.323-10.67,1.563-10.67,1.563l-6.469-6.053-.871-.82,1.461-3.1s.464.128,1.261.355C487.9,429.12,500.969,433.169,499.01,435.963Z" transform="translate(-391.427 -341.048)" fill="#efb7b9"/>
    <path id="Path_120" data-name="Path 120" d="M483.717,427.905a13.622,13.622,0,0,1-1.846,3.567l-.871-.82,1.461-3.1S482.93,427.678,483.717,427.905Z" transform="translate(-391.427 -341.048)" opacity="0.1"/>
    <path id="Path_121" data-name="Path 121" d="M378.366,278.1s-5.963,2.645-5.67,9.139a107.079,107.079,0,0,0,1.365,12.483s-1.219,9.773,3.857,12.293,9.773,4.591,9.773,4.591,7.941.855,8.928,1.207,4.071-5.043,3.5-5.884-7.858-2.6-8.787-4.005a7.754,7.754,0,0,0-3.077-2.269s-2.218-1.342-2.368-2.554a5.513,5.513,0,0,1,.583-2.647c.149-.532.525-5.666.525-5.666S389.5,276.511,378.366,278.1Z" transform="translate(-308.263 -226.223)" fill="#dce6f2"/>
    <path id="Path_122" data-name="Path 122" d="M389.49,370.39s-8.18,1.37-7.389,4.233A17.343,17.343,0,0,1,389.49,370.39Z" transform="translate(-315.451 -297.16)" opacity="0.1"/>
    <path id="Path_123" data-name="Path 123" d="M402.03,375.38s-4.5,3.671-3.618,3.859S402.03,375.38,402.03,375.38Z" transform="translate(-327.929 -300.992)" opacity="0.1"/>
    <path id="Path_124" data-name="Path 124" d="M421.348,380.89s-1.205,2.468-.464,2.3S421.348,380.89,421.348,380.89Z" transform="translate(-345.085 -305.222)" opacity="0.1"/>
    <path id="Path_125" data-name="Path 125" d="M401.846,314.2l-.5-.142a1.42,1.42,0,0,0,.065-1.015c-.569-.841-7.853-2.6-8.78-4.005a7.712,7.712,0,0,0-3.077-2.269s-2.218-1.342-2.368-2.554a5.513,5.513,0,0,1,.583-2.647c.149-.532.525-5.668.525-5.668s2.5-18.272-8.638-16.686c0,0-5.963,2.647-5.673,9.142a106.791,106.791,0,0,0,1.368,12.483s-1.219,9.773,3.857,12.293,9.773,4.591,9.773,4.591,7.939.852,8.928,1.207c.374.135,1.049-.56,1.711-1.514l.376.351,6.469,6.051s8.348,1.762,10.67-1.56C419.1,319.465,406.037,315.415,401.846,314.2Z" transform="translate(-309.254 -227.083)" opacity="0.1"/>
    <path id="Path_126" data-name="Path 126" d="M377.748,169.024a1.974,1.974,0,0,0-.643.248c-.232.193-.232.522-.29.81a2.665,2.665,0,0,1-.464,1.11,1.669,1.669,0,0,0,.773-.128,3.982,3.982,0,0,1-.232.929.752.752,0,0,0,.7-.425,4.463,4.463,0,0,0,.29-.815.671.671,0,0,1,.111-.232c.214-.253.611-.139.94-.107a1.544,1.544,0,0,0,1.412-.678c.351-.532.372-1.892-.464-2.036C379,167.557,378.461,168.759,377.748,169.024Z" transform="translate(-311.077 -141.527)" fill="#965d7b"/>
    <g id="Group_706" data-name="Group 706" transform="translate(65.308 27.686)" opacity="0.1">
      <path id="Path_127" data-name="Path 127" d="M378.287,174.6c.021-.114.035-.232.06-.346h0a1.362,1.362,0,0,0-.29.81,2.557,2.557,0,0,1-.137.49A2.661,2.661,0,0,0,378.287,174.6Z" transform="translate(-377.59 -174.25)"/>
      <path id="Path_128" data-name="Path 128" d="M377.271,180.929A3.863,3.863,0,0,0,377.5,180a1.663,1.663,0,0,1-.736.128,2.686,2.686,0,0,1-.267.464,1.653,1.653,0,0,0,.771-.125,3.863,3.863,0,0,1-.232.929.755.755,0,0,0,.7-.425,1.734,1.734,0,0,0,.139-.332A.7.7,0,0,1,377.271,180.929Z" transform="translate(-376.5 -178.665)"/>
      <path id="Path_129" data-name="Path 129" d="M384.93,175.319c-.33-.033-.729-.146-.943.107a.718.718,0,0,0-.112.232c-.021.06-.039.123-.056.186.221-.174.578-.081.878-.051a1.551,1.551,0,0,0,1.412-.678,1.285,1.285,0,0,0,.156-.365A1.546,1.546,0,0,1,384.93,175.319Z" transform="translate(-382.12 -174.634)"/>
    </g>
    <path id="Path_130" data-name="Path 130" d="M313.27,201l3.541,4.259-.462,4.3-4.279-6.7Z" transform="translate(-239.61 -154.325)" fill="#dce6f2"/>
    <path id="Path_131" data-name="Path 131" d="M316.809,205.259l-.434,4.043-.028.255-3.862-6.047-.416-.652.121-.188L313.268,201l.239.288Z" transform="translate(-239.61 -154.325)" opacity="0.1"/>
    <path id="Path_132" data-name="Path 132" d="M387.128,210.508a7.1,7.1,0,0,0-3.339,2.956,25.226,25.226,0,0,0-1.8,3.1c-.327.655-.615,1.284-.855,1.832l-.167.39c-.4.954-.629,1.593-.629,1.593s-9.172-6.9-7.721-7.361c.488-.156,1.129-1.2,1.762-2.517l.079-.167c.4-.845.8-1.788,1.147-2.675.718-1.823,1.249-3.406,1.249-3.406S390.785,209.463,387.128,210.508Z" transform="translate(-308.09 -169.598)" fill="#efb7b9"/>
    <path id="Path_133" data-name="Path 133" d="M459.26,202.58s2.118,3.831,4.962,3.309,1.674-2.057,1.674-2.057Z" transform="translate(-374.735 -168.316)" fill="#444053"/>
    <path id="Path_134" data-name="Path 134" d="M385.188,743.832c-1.876.857-6.119,0-6.119,0l-1.788-.111c-2.322-.149-6.209-.4-7.584-.511-2.006-.165-1.514-.987-1.514-.987v-4.967l9.734-2.466s3.848,1.317,4.9,2.466c1,1.1,1.586.253,3.372.569.088.016.181.035.279.058,1.7.388,2.615.541,3.158,1.946a6.518,6.518,0,0,1,.262.906C390.391,743,387.062,742.98,385.188,743.832Z" transform="translate(-304.766 -576.946)" fill="#a36468"/>
    <path id="Path_135" data-name="Path 135" d="M389.627,749.864a7.277,7.277,0,0,1-1.1.562c-1.277.583-2.492,1.293-3.783,1.844a8.848,8.848,0,0,1-4.08.838,6.082,6.082,0,0,0-2.178-.023,5.034,5.034,0,0,0-1.21.671c-2.322-.148-6.209-.4-7.584-.511-2.006-.165-1.514-.987-1.514-.987v-.581c.072,0,.153-.021.246-.028a4.387,4.387,0,0,1,1.416.211c1.008.274,2.011.543,3.019.813a2.385,2.385,0,0,1,1.161-1.481,3.7,3.7,0,0,1,1.871-.43c1.563.021,3.042.762,4.6.836a2.537,2.537,0,0,0,1.275-.214c.214-.107.4-.262.611-.381a4.454,4.454,0,0,1,1.052-.355,23.159,23.159,0,0,0,3.007-.971c.279-.109.6-.306.567-.6-.049-.395-.669-.441-.831-.8a.464.464,0,0,1,.019-.411c.088.016.181.035.279.058C388.165,748.306,389.084,748.459,389.627,749.864Z" transform="translate(-304.766 -586.981)" opacity="0.1"/>
    <path id="Path_136" data-name="Path 136" d="M366.7,785.342c-2.206,1.008-7.2,0-7.2,0l-2.1-.123c-2.721-.174-7.305-.464-8.923-.6-2.362-.2-1.781-1.161-1.781-1.161V777.6l11.455-2.9s4.528,1.549,5.768,2.9c1.177,1.289,1.858.3,3.968.669.1.019.214.042.327.067,1.995.464,3.077.639,3.715,2.292a7.457,7.457,0,0,1,.309,1.066C372.81,784.357,368.9,784.336,366.7,785.342Z" transform="translate(-288.256 -607.589)" fill="#a36468"/>
    <path id="Path_137" data-name="Path 137" d="M371.92,792.478a8.634,8.634,0,0,1-1.289.662c-1.5.685-2.933,1.521-4.451,2.169a10.434,10.434,0,0,1-4.8.987,7.009,7.009,0,0,0-2.554-.028,5.924,5.924,0,0,0-1.428.8c-2.721-.174-7.305-.464-8.923-.6-2.362-.2-1.781-1.161-1.781-1.161v-.683c.1-.016.193-.026.29-.032a5.088,5.088,0,0,1,1.667.248l3.55.957a2.81,2.81,0,0,1,1.377-1.744,4.333,4.333,0,0,1,2.2-.506c1.839.025,3.578.9,5.415.984a3,3,0,0,0,1.5-.248c.253-.128.464-.311.72-.448a5.056,5.056,0,0,1,1.238-.418,27.787,27.787,0,0,0,3.52-1.142c.327-.13.711-.362.666-.711-.058-.464-.787-.52-.98-.947a.56.56,0,0,1,.023-.483c.1.019.214.042.328.067C370.2,790.643,371.282,790.824,371.92,792.478Z" transform="translate(-288.256 -619.436)" opacity="0.1"/>
    <path id="Path_138" data-name="Path 138" d="M386.389,647.54l-.62,14.589s-.929,2.979-.425,3.831,1.354,1.7,1.045,2.206-4.024,5.951-5.225,3.862-2.385-11.146-2.385-11.146l1.108-11.185Z" transform="translate(-312.942 -509.956)" fill="#444053"/>
    <path id="Path_139" data-name="Path 139" d="M411.613,491l1.723,2.3v20.034s.5,5.341,0,6.444a17.294,17.294,0,0,1-3.058,3.309l-2.148-11.03.464-11.668Z" transform="translate(-335.477 -389.765)" fill="#444053"/>
    <path id="Path_140" data-name="Path 140" d="M386.389,647.54l-.62,14.589s-.929,2.979-.425,3.831,1.354,1.7,1.045,2.206-4.024,5.951-5.225,3.862-2.385-11.146-2.385-11.146l1.108-11.185Z" transform="translate(-312.942 -509.956)" opacity="0.1"/>
    <path id="Path_141" data-name="Path 141" d="M411.613,491l1.723,2.3v20.034s.5,5.341,0,6.444a17.294,17.294,0,0,1-3.058,3.309l-2.148-11.03.464-11.668Z" transform="translate(-335.477 -389.765)" opacity="0.1"/>
    <path id="Path_142" data-name="Path 142" d="M351.045,435.773V446.61l-1.934,8.436s-.62,20.357-.079,22.832-1.858,4.8-1.858,4.8-1.393.155-1.393,1.238-2.322,4.18-2.322,4.18l.077,6.037s1.008,11.3-.541,13.468.541,2.478.541,2.478c-1.934,6.346-11.222,4.876-12.061,4.18s0-14.4,0-14.4,2.076-20.9,3.7-21.827.079-2.09.62-3.483-.541-5.185-.541-5.185-.464-4.491-1.625-6.657-1.008-8.127-1.008-8.127-3.251-4.335-4.217-6.037-1.588-6.114-1.356-9.444a29.67,29.67,0,0,1,2.09-7.412c.36-.9.62-1.488.62-1.488l.221.058,12.683,3.32Z" transform="translate(-273.186 -343.082)" fill="#444053"/>
    <path id="Path_143" data-name="Path 143" d="M397.516,210.454a7.1,7.1,0,0,0-3.339,2.956h-.26a8.294,8.294,0,0,1-7.2-4.163,8.168,8.168,0,0,1-.729-1.66c.717-1.823,1.249-3.406,1.249-3.406S401.174,209.409,397.516,210.454Z" transform="translate(-318.478 -169.545)" opacity="0.1"/>
    <path id="Path_144" data-name="Path 144" d="M400.982,178.73a8.3,8.3,0,1,1-15.53-4.068,8.106,8.106,0,0,1,.878-1.268,8.4,8.4,0,0,1,1.909-1.676,8.3,8.3,0,0,1,12.732,6.4C400.975,178.326,400.982,178.528,400.982,178.73Z" transform="translate(-317.242 -143.626)" fill="#efb7b9"/>
    <path id="Path_145" data-name="Path 145" d="M384.854,244.683l-.028.255-3.862-6.037c-.4.954-.629,1.593-.629,1.593s-9.172-6.906-7.721-7.37c.488-.156,1.129-1.2,1.762-2.517l.079-.167c.673,2.006,4.586,6.016,6.214,7.623.188.186.344.339.464.45l.248.232.13.13C382.105,239.487,384.6,242.18,384.854,244.683Z" transform="translate(-308.09 -189.707)" opacity="0.1"/>
    <path id="Path_146" data-name="Path 146" d="M347.836,264.945l-.423,13.6-.074,2.422s-5.006-.464-9.678-.975a63.039,63.039,0,0,1-7.853-1.115,14.782,14.782,0,0,0-3.367-.741c-.91-.123-1.625-.188-1.625-.188s-.267.079-.678.153c-.9.163-2.471.295-3.388-.5-1.173-1.019,1.909-4.723,2.677-5.612l.169-.193-.29-2.682-.755-6.954a42.427,42.427,0,0,0-1.161-6.153,11.351,11.351,0,0,1-.4-1.869,14.972,14.972,0,0,1,.39-5.865,12.79,12.79,0,0,0,.418-2.482c.116-2.148,6.676-10.449,8.3-11.2a3.446,3.446,0,0,0,1.663-1.658,3.169,3.169,0,0,0,.253-.722c.7-3.019,2.459-1.82,2.459-1.82.425,2.361,7,8.612,7,8.612l.13.13c.652.669,3.56,3.808,3.353,6.488a7.864,7.864,0,0,0,.439,2.935,49.632,49.632,0,0,1,2.287,13Z" transform="translate(-268.185 -189.484)" fill="#dce6f2"/>
    <path id="Path_147" data-name="Path 147" d="M388.047,310.45s-1.625,3.947-2.844,4.586S388.628,316.383,388.047,310.45Z" transform="translate(-317.716 -251.139)" opacity="0.1"/>
    <path id="Path_148" data-name="Path 148" d="M391.1,342.2s-3.715.464-3.715,1.161S391.1,342.2,391.1,342.2Z" transform="translate(-319.546 -275.516)" opacity="0.1"/>
    <path id="Path_149" data-name="Path 149" d="M396.689,361.7s-5.4,11.494-6.908,11.842S396.689,361.7,396.689,361.7Z" transform="translate(-321.25 -290.488)" opacity="0.1"/>
    <path id="Path_150" data-name="Path 150" d="M377.855,241.076l-4.465,1.941L368,234.877a3.165,3.165,0,0,0,.253-.722c.7-3.019,2.459-1.82,2.459-1.82.425,2.361,7,8.612,7,8.612Z" transform="translate(-304.666 -190.981)" opacity="0.1"/>
    <path id="Path_151" data-name="Path 151" d="M378.855,239.076l-4.465,1.941L369,232.877a3.165,3.165,0,0,0,.253-.722c.7-3.019,2.459-1.82,2.459-1.82.425,2.362,7,8.612,7,8.612Z" transform="translate(-305.433 -189.445)" fill="#dce6f2"/>
    <path id="Path_152" data-name="Path 152" d="M355.317,328.327s-5.006-.464-9.678-.975l8.382,2.194V332.1c-.367.332-.685.5-.892.416-.966-.406-8.849-1.683-8.849-1.683s-4.579-2.322-9.52-5.108a3.828,3.828,0,0,1-.348-.218,5.487,5.487,0,0,1-1.463-1.465,10.4,10.4,0,0,1-1.551-4.684,20.254,20.254,0,0,1-.121-2.875,23.568,23.568,0,0,1,.3-3.248,106.828,106.828,0,0,1-.7-12.539c.058-6.5,6.153-8.824,6.153-8.824,11.2-.987,7.73,17.125,7.73,17.125s-.648,5.108-.824,5.631a5.512,5.512,0,0,0-.724,2.612c.086,1.219,2.227,2.677,2.227,2.677a7.818,7.818,0,0,1,2.951,2.431c.627,1.07,4.7,2.522,7,3.557Z" transform="translate(-276.163 -236.844)" opacity="0.1"/>
    <path id="Path_153" data-name="Path 153" d="M400.094,170a2.629,2.629,0,0,1-.232,1.11,6.854,6.854,0,0,1-.413.827,3.808,3.808,0,0,1-1.017,1.263,5.2,5.2,0,0,1-1.858.646,2.688,2.688,0,0,0-1.679.952,3.327,3.327,0,0,0-.392,1.138,2.448,2.448,0,0,1-.464,1.1.913.913,0,0,1-1.087.26,1.1,1.1,0,0,1-.42-.541,7.762,7.762,0,0,1-.439-1.9,4.044,4.044,0,0,0-.652-1.823,1.632,1.632,0,0,0-1.714-.657,1.651,1.651,0,0,0-.929.9,5.162,5.162,0,0,0-.351,1.282q-.432,2.364-1.019,4.7a.433.433,0,0,1-.077.176.334.334,0,0,1-.232.1c-.52.07-1.019-.295-1.544-.255a.888.888,0,0,0-.16.026,8.3,8.3,0,0,1,.838-9.474l.042-.012a2.5,2.5,0,0,0,.929-.585,9.8,9.8,0,0,0,.929-1.075l.186-.232a10.592,10.592,0,0,1,1.811-1.721,1.857,1.857,0,0,1,.618-.334,1.83,1.83,0,0,1,.585-.019,14.758,14.758,0,0,0,2.417.091,15.51,15.51,0,0,1,1.7-.172,5.225,5.225,0,0,1,3.653,2.218A3.434,3.434,0,0,1,400.094,170Z" transform="translate(-317.188 -140.053)" opacity="0.1"/>
    <path id="Path_154" data-name="Path 154" d="M376.408,170.566c-.323.529-.906.889-1.124,1.47-.32.843.221,1.892-.276,2.645-.165.253-.437.441-.529.731-.158.49.274,1.012.163,1.516s-.776.929-.6,1.421a.929.929,0,0,0,.511.464,2,2,0,0,0,1.161.258c.634-.1,1.105-.727,1.748-.773.522-.037,1.022.325,1.542.258a.348.348,0,0,0,.232-.1.4.4,0,0,0,.077-.176q.585-2.334,1.022-4.7a5.062,5.062,0,0,1,.348-1.282,1.665,1.665,0,0,1,.929-.9,1.638,1.638,0,0,1,1.714.657,4.022,4.022,0,0,1,.655,1.823,7.864,7.864,0,0,0,.437,1.9,1.11,1.11,0,0,0,.423.543.909.909,0,0,0,1.084-.26,2.421,2.421,0,0,0,.464-1.1,3.315,3.315,0,0,1,.392-1.135,2.694,2.694,0,0,1,1.679-.952,5.253,5.253,0,0,0,1.858-.648,3.823,3.823,0,0,0,1.017-1.261,3.712,3.712,0,0,0,.636-1.939,3.559,3.559,0,0,0-.952-2.009,5.219,5.219,0,0,0-3.655-2.215,14.442,14.442,0,0,0-1.7.172,14.525,14.525,0,0,1-2.417-.093,1.9,1.9,0,0,0-.585.021,1.751,1.751,0,0,0-.615.334,10.6,10.6,0,0,0-1.814,1.718,13.3,13.3,0,0,1-1.119,1.3,2.519,2.519,0,0,1-.929.587c-.232.065-.464.019-.685.091C376.817,169.147,376.726,170.041,376.408,170.566Z" transform="translate(-309.282 -139.309)" fill="#965d7b"/>
    <path id="Path_155" data-name="Path 155" d="M464.222,205.887c-1.858.341-3.4-1.161-4.249-2.257a9.1,9.1,0,0,1-.713-1.05l6.376,1.2.258.049S467.067,205.366,464.222,205.887Z" transform="translate(-374.735 -168.316)" opacity="0.1"/>
    <g id="Group_707" data-name="Group 707" transform="translate(64.719 29.485)" opacity="0.1">
      <path id="Path_156" data-name="Path 156" d="M376.066,211.222a1.933,1.933,0,0,0-.135-.892c0,.023-.021.046-.028.07a1.728,1.728,0,0,0,.121.957A.7.7,0,0,0,376.066,211.222Z" transform="translate(-375.426 -203.752)"/>
      <path id="Path_157" data-name="Path 157" d="M379.053,197.8a5.158,5.158,0,0,0,.019.964,5.179,5.179,0,0,0-.019-.964Z" transform="translate(-377.86 -194.131)"/>
      <path id="Path_158" data-name="Path 158" d="M391.283,183.5a3.808,3.808,0,0,1-1.017,1.263,5.186,5.186,0,0,1-1.858.646,2.682,2.682,0,0,0-1.679.952,3.347,3.347,0,0,0-.392,1.138,2.431,2.431,0,0,1-.464,1.1.906.906,0,0,1-1.084.26,1.11,1.11,0,0,1-.423-.543,7.731,7.731,0,0,1-.437-1.9,4.012,4.012,0,0,0-.655-1.823,1.632,1.632,0,0,0-1.714-.657,1.658,1.658,0,0,0-.929.9,5.061,5.061,0,0,0-.348,1.282q-.434,2.366-1.022,4.7a.4.4,0,0,1-.077.176.348.348,0,0,1-.232.1c-.52.067-1.019-.295-1.542-.258-.643.046-1.115.669-1.749.771a1.962,1.962,0,0,1-1.161-.258,1.242,1.242,0,0,1-.425-.3.627.627,0,0,0-.086.541.905.905,0,0,0,.511.464,1.962,1.962,0,0,0,1.161.258c.634-.1,1.105-.724,1.748-.771.522-.037,1.022.325,1.542.258a.348.348,0,0,0,.232-.1.4.4,0,0,0,.077-.176q.585-2.322,1.022-4.7a5.061,5.061,0,0,1,.348-1.282,1.658,1.658,0,0,1,.929-.9,1.634,1.634,0,0,1,1.714.657,4.022,4.022,0,0,1,.655,1.823,7.863,7.863,0,0,0,.437,1.9,1.11,1.11,0,0,0,.423.543.909.909,0,0,0,1.084-.26,2.431,2.431,0,0,0,.464-1.1,3.347,3.347,0,0,1,.392-1.138,2.705,2.705,0,0,1,1.679-.952,5.3,5.3,0,0,0,1.858-.646,3.808,3.808,0,0,0,1.017-1.263,3.7,3.7,0,0,0,.636-1.937,2.477,2.477,0,0,0-.028-.265A4.561,4.561,0,0,1,391.283,183.5Z" transform="translate(-373.964 -182)"/>
    </g>
    <path id="Path_159" data-name="Path 159" d="M403.45,174.685a8.2,8.2,0,0,1,1.033,3.448c-2.069-1.161-4.015-2.436-5-2.879-1.711-.773-8.111-.657-10.516-.585a8.112,8.112,0,0,1,.878-1.268,8.4,8.4,0,0,1,1.916-1.677,8.306,8.306,0,0,1,11.7,2.956Z" transform="translate(-320.766 -143.632)" opacity="0.1"/>
    <path id="Path_160" data-name="Path 160" d="M464.8,204.9c-1.117.344-2.94-.32-4.83-1.272a9.1,9.1,0,0,1-.713-1.05l6.376,1.2C466.059,204.071,466.166,204.482,464.8,204.9Z" transform="translate(-374.735 -168.316)" opacity="0.1"/>
    <path id="Path_161" data-name="Path 161" d="M393.683,154.045s-6.1-.348-7.809,2.961l-.276,2.933-.464-.051-.093,1.995s9.316-.406,11.436.55,8.708,5.777,11.348,4.964-.232-1.567-.232-1.567-3.634-1.54-3.634-2.747S403.057,155.5,393.683,154.045Z" transform="translate(-317.749 -131.043)" fill="#444053"/>
    <path id="Path_162" data-name="Path 162" d="M371.63,622.28s3.889,3.773,5.573,3.483C377.2,625.763,372.443,625.357,371.63,622.28Z" transform="translate(-307.453 -490.561)" opacity="0.1"/>
    <path id="Path_163" data-name="Path 163" d="M368.13,629.81s.348,1.941,1.277,1.751S368.13,629.81,368.13,629.81Z" transform="translate(-304.765 -496.343)" opacity="0.1"/>
    <path id="Path_164" data-name="Path 164" d="M378.851,769.53s-5.522,4.3-4.591,4.412S378.851,769.53,378.851,769.53Z" transform="translate(-309.391 -603.619)" opacity="0.1"/>
    <path id="Path_165" data-name="Path 165" d="M330.96,337.709l17.88-2.909v16.927l-16.988-.889Z" transform="translate(-254.114 -257.056)" fill="#020887"/>
    <path id="Path_166" data-name="Path 166" d="M330.96,337.709l17.88-2.909v16.927l-16.988-.889Z" transform="translate(-254.114 -257.056)" opacity="0.05"/>
    <path id="Path_167" data-name="Path 167" d="M407.96,334.8l21.441,1.6-1.187,14.731-20.255.592Z" transform="translate(-313.234 -257.056)" fill="#020887"/>
    <path id="Path_168" data-name="Path 168" d="M407.96,334.8l21.441,1.6-1.187,14.731-20.255.592Z" transform="translate(-313.234 -257.056)" opacity="0.1"/>
    <path id="Path_169" data-name="Path 169" d="M414.552,312.55l-6.592,5.166,21.441,1.6,3.5-5.287Z" transform="translate(-313.234 -239.973)" fill="#020887"/>
    <path id="Path_170" data-name="Path 170" d="M303.08,316.55l16.1-1.96,8.257,4.693-17.879,2.909Z" transform="translate(-232.708 -241.539)" fill="#020887"/>
    <path id="Path_171" data-name="Path 171" d="M352.759,348.816V371.96l-8.376-.859-3.643-.372-1.11-.116-3.641-.374-5.029-.516V347.33l17.877,1.217Z" transform="translate(-254.114 -266.677)" fill="#020887"/>
    <path id="Path_172" data-name="Path 172" d="M442.362,341.71v22.57l-6.713,1.289-3.265.627-7.544,1.449V344.5Z" transform="translate(-326.195 -262.362)" fill="#020887"/>
    <path id="Path_173" data-name="Path 173" d="M442.362,341.71v22.57l-6.713,1.289-3.265.627-7.544,1.449V344.5Z" transform="translate(-326.195 -262.362)" opacity="0.05"/>
    <path id="Path_174" data-name="Path 174" d="M303.08,352.2l6.474-4.872,21.8,1.486-3.209,5.406Z" transform="translate(-232.708 -266.677)" fill="#020887"/>
    <path id="Path_175" data-name="Path 175" d="M303.08,352.2l6.474-4.872,21.8,1.486-3.209,5.406Z" transform="translate(-232.708 -266.677)" fill="#fff" opacity="0.1"/>
    <path id="Path_176" data-name="Path 176" d="M442.362,341.71,424.84,344.5l5.7,5.108,18.769-3.149Z" transform="translate(-326.195 -262.362)" fill="#020887"/>
    <path id="Path_177" data-name="Path 177" d="M442.362,341.71,424.84,344.5l5.7,5.108,18.769-3.149Z" transform="translate(-326.195 -262.362)" fill="#fff" opacity="0.1"/>
    <path id="Path_178" data-name="Path 178" d="M460.595,428.037l-3.265.627v-4.823l3.058-.771Z" transform="translate(-351.14 -324.83)" fill="#fff" opacity="0.1"/>
    <path id="Path_179" data-name="Path 179" d="M376.723,435.96v3.19l-3.643-.372V435.96Z" transform="translate(-286.453 -334.727)" fill="#fff" opacity="0.1"/>
    <path id="Path_180" data-name="Path 180" d="M356.261,440.29v1.7l-3.641-.374V440.29Z" transform="translate(-270.744 -338.051)" fill="#fff" opacity="0.1"/>
    <path id="Path_181" data-name="Path 181" d="M452.116,452.988c-2.5,3.193-10.739.987-10.739.987l-6.125-6.39-.831-.866,1.625-3.019s.464.153,1.24.423C441.391,445.558,454.217,450.3,452.116,452.988Z" transform="translate(-355.663 -353.448)" opacity="0.1"/>
    <path id="Path_182" data-name="Path 182" d="M451.116,450.988c-2.5,3.193-10.739.987-10.739.987l-6.125-6.39-.831-.866,1.625-3.019s.464.153,1.24.423C440.391,443.558,453.217,448.3,451.116,450.988Z" transform="translate(-354.895 -351.912)" fill="#efb7b9"/>
    <path id="Path_183" data-name="Path 183" d="M436.245,442.123a13.728,13.728,0,0,1-2.034,3.462l-.831-.866,1.625-3.019S435.472,441.853,436.245,442.123Z" transform="translate(-354.864 -351.912)" opacity="0.1"/>
    <path id="Path_184" data-name="Path 184" d="M338.031,287.868s-6.1,2.322-6.153,8.824a106.824,106.824,0,0,0,.7,12.539s-1.742,9.694,3.193,12.481,9.52,5.108,9.52,5.108,7.883,1.277,8.852,1.683,4.333-4.818,3.81-5.689-7.7-3.019-8.552-4.47a7.732,7.732,0,0,0-2.951-2.429s-2.141-1.461-2.227-2.68a5.485,5.485,0,0,1,.724-2.612c.179-.522.827-5.631.827-5.631S349.235,286.87,338.031,287.868Z" transform="translate(-276.931 -233.77)" fill="#dce6f2"/>
    <path id="Path_185" data-name="Path 185" d="M345.118,380.7s-8.243.929-7.6,3.831A17.342,17.342,0,0,1,345.118,380.7Z" transform="translate(-281.231 -305.076)" opacity="0.1"/>
    <path id="Path_186" data-name="Path 186" d="M357.4,385.7s-4.679,3.425-3.82,3.657S357.4,385.7,357.4,385.7Z" transform="translate(-293.514 -308.915)" opacity="0.1"/>
    <path id="Path_187" data-name="Path 187" d="M376.7,391.7s-1.335,2.4-.58,2.276S376.7,391.7,376.7,391.7Z" transform="translate(-310.719 -313.522)" opacity="0.1"/>
    <path id="Path_188" data-name="Path 188" d="M722.956,167.382s-8.824-.532-7.793,5.659a1.51,1.51,0,0,0,.785,1.591s.016-.464.906-.3a4.067,4.067,0,0,0,.959.046,1.99,1.99,0,0,0,1.175-.485h0s2.482-1.024,3.448-5.083c0,0,.715-.887.7-1.115l-1.491.639a2.671,2.671,0,0,1,.107,1.969s-.046-1.93-.334-1.885c-.058,0-.773.374-.773.374a4.4,4.4,0,0,1,.214,3.235s.251-2.308-.488-3.1l-1.049.613a4.633,4.633,0,0,1,.33,3.513s.179-2.422-.55-3.365l-.952.741s.964,1.909.376,3.218c0,0-.077-2.819-.583-3.033a5.739,5.739,0,0,0-.957,1.036s.657,1.393.248,2.115c0,0-.251-1.879-.464-1.888a6.251,6.251,0,0,0-.915,2.09,4.519,4.519,0,0,1,.713-2.215,2.488,2.488,0,0,0-1.268.657s.128-.88,1.472-.957a6.354,6.354,0,0,1,.868-1,5.444,5.444,0,0,0-2.148.248,2.433,2.433,0,0,1,2.394-.464l.929-.766a8.013,8.013,0,0,0-2.508.026s.859-.734,2.761-.2l1.022-.611a9.174,9.174,0,0,0-2.394-.207,3.673,3.673,0,0,1,2.694.042l.732-.327s-1.1-.216-1.421-.251-.339-.123-.339-.123a3.8,3.8,0,0,1,2.064.232A9.113,9.113,0,0,0,722.956,167.382Z" transform="translate(-571.153 -141.283)" fill="#020887"/>
    <path id="Path_189" data-name="Path 189" d="M838.416,300.722s-8.824-.532-7.793,5.659a1.51,1.51,0,0,0,.785,1.591s.016-.464.908-.3a4.066,4.066,0,0,0,.959.046,1.987,1.987,0,0,0,1.161-.483h0s2.485-1.026,3.451-5.085c0,0,.713-.885.685-1.112l-1.491.636a2.679,2.679,0,0,1,.109,1.969s-.049-1.93-.334-1.885c-.058,0-.776.374-.776.374a4.4,4.4,0,0,1,.216,3.235s.251-2.308-.49-3.1l-1.038.606a4.632,4.632,0,0,1,.33,3.513s.179-2.422-.55-3.365l-.95.743s.961,1.906.376,3.216c0,0-.077-2.819-.583-3.033a5.826,5.826,0,0,0-.959,1.036s.659,1.393.251,2.115c0,0-.251-1.879-.464-1.888a6.251,6.251,0,0,0-.915,2.09,4.533,4.533,0,0,1,.715-2.215,2.5,2.5,0,0,0-1.27.657s.13-.88,1.474-.957a5.8,5.8,0,0,1,.868-1,5.445,5.445,0,0,0-2.148.249,2.412,2.412,0,0,1,2.392-.453l.929-.766a8.014,8.014,0,0,0-2.508.026s.859-.734,2.761-.2l1.022-.611a9.3,9.3,0,0,0-2.4-.207,3.681,3.681,0,0,1,2.7.042l.731-.327s-1.1-.216-1.423-.251-.339-.123-.339-.123a3.807,3.807,0,0,1,2.067.232A9.375,9.375,0,0,0,838.416,300.722Z" transform="translate(-659.802 -243.661)" fill="#020887" opacity="0.1"/>
    <path id="Path_190" data-name="Path 190" d="M613.7,248.232s2.032-8.612-4.247-8.643a1.508,1.508,0,0,0-1.7.5s.448.1.144.945a4.13,4.13,0,0,0-.209.929,1.994,1.994,0,0,0,.276,1.238h0s.587,2.624,4.412,4.268c0,0,.752.855.98.864l-.372-1.577a2.668,2.668,0,0,1-1.96-.232s1.911.281,1.913,0c0-.058-.232-.827-.232-.827a4.409,4.409,0,0,1-3.225-.341s2.231.641,3.139.049l-.418-1.142a4.634,4.634,0,0,1-3.52-.274s2.357.59,3.411.033l-.569-1.064s-2.043.622-3.234-.179c0,0,2.786.4,3.088-.056a5.767,5.767,0,0,0-.857-1.122s-1.477.413-2.127-.114c0,0,1.892.072,1.936-.128a6.259,6.259,0,0,0-1.911-1.261,4.551,4.551,0,0,1,2.064,1.082,2.506,2.506,0,0,0-.432-1.363s.845.279.7,1.625a5.784,5.784,0,0,1,.838,1.026,5.461,5.461,0,0,0,.121-2.159,2.414,2.414,0,0,1,.039,2.436l.594,1.057a7.705,7.705,0,0,0,.4-2.475s.578.971-.274,2.754l.43,1.112a9.3,9.3,0,0,0,.611-2.322,3.67,3.67,0,0,1-.5,2.649l.2.776s.4-1.047.488-1.358.179-.314.179-.314a3.8,3.8,0,0,1-.578,2A9.229,9.229,0,0,0,613.7,248.232Z" transform="translate(-488.687 -196.666)" fill="#020887" opacity="0.1"/>
    <path id="Path_191" data-name="Path 191" d="M517.2,282.354s-7.087-5.3-9.62.441a1.511,1.511,0,0,0-.218,1.76s.265-.374.929.246a4.062,4.062,0,0,0,.775.567,1.992,1.992,0,0,0,1.247.232h0s2.638.509,5.675-2.35c0,0,1.084-.348,1.187-.553l-1.6-.281a2.683,2.683,0,0,1-.991,1.7s1.019-1.639.755-1.758c-.053-.026-.852-.116-.852-.116a4.406,4.406,0,0,1-1.6,2.821s1.479-1.79,1.3-2.858l-1.214-.065a4.632,4.632,0,0,1-1.656,3.118s1.479-1.925,1.393-3.114l-1.2.1s-.244,2.12-1.454,2.891c0,0,1.484-2.4,1.18-2.851a5.838,5.838,0,0,0-1.37.337s-.211,1.519-.954,1.9c0,0,.824-1.707.657-1.825a6.241,6.241,0,0,0-1.918,1.247,4.534,4.534,0,0,1,1.816-1.458,2.5,2.5,0,0,0-1.421-.149s.59-.664,1.755.012a5.861,5.861,0,0,1,1.277-.36,5.433,5.433,0,0,0-1.932-.973,2.417,2.417,0,0,1,2.25.929l1.205-.123a7.952,7.952,0,0,0-2.108-1.356s1.122-.142,2.415,1.349l1.189.053a9.269,9.269,0,0,0-1.885-1.491,3.672,3.672,0,0,1,2.227,1.516l.792.128s-.8-.785-1.052-.989-.216-.29-.216-.29a3.815,3.815,0,0,1,1.6,1.328A9.39,9.39,0,0,0,517.2,282.354Z" transform="translate(-411.51 -227.854)" fill="#020887" opacity="0.1"/>
    <path id="Path_192" data-name="Path 192" d="M618.805,70.241s-7.087-5.3-9.62.441a1.511,1.511,0,0,0-.218,1.76s.265-.374.929.246a4.131,4.131,0,0,0,.778.564,1.99,1.99,0,0,0,1.247.232h0s2.638.509,5.675-2.352c0,0,1.084-.346,1.184-.553l-1.6-.276a2.671,2.671,0,0,1-.991,1.7s1.022-1.639.757-1.758c-.053-.026-.852-.116-.852-.116a4.426,4.426,0,0,1-1.607,2.821s1.477-1.79,1.3-2.858l-1.214-.065a4.635,4.635,0,0,1-1.656,3.116s1.479-1.925,1.393-3.114l-1.2.1s-.246,2.122-1.456,2.893c0,0,1.486-2.4,1.182-2.851a5.837,5.837,0,0,0-1.37.337s-.211,1.519-.954,1.9c0,0,.824-1.707.657-1.827a6.265,6.265,0,0,0-1.918,1.249,4.513,4.513,0,0,1,1.816-1.458,2.485,2.485,0,0,0-1.423-.149s.592-.664,1.758.012a5.735,5.735,0,0,1,1.277-.36,5.465,5.465,0,0,0-1.932-.975,2.421,2.421,0,0,1,2.248.929l1.205-.123a7.961,7.961,0,0,0-2.108-1.358s1.122-.139,2.417,1.351l1.189.051a9.171,9.171,0,0,0-1.888-1.488,3.673,3.673,0,0,1,2.229,1.516l.789.128s-.8-.776-1.054-.975-.216-.288-.216-.288a3.808,3.808,0,0,1,1.6,1.328A10.025,10.025,0,0,0,618.805,70.241Z" transform="translate(-489.526 -64.993)" fill="#020887" opacity="0.1"/>
    <path id="Path_193" data-name="Path 193" d="M737.693,87.183s-2.833-8.385-8.176-5.09a1.526,1.526,0,0,0-1.177,1.326s.43-.158.62.724a4.177,4.177,0,0,0,.318.908,2.011,2.011,0,0,0,.892.9h0s1.886,1.916,6.009,1.282c0,0,1.089.33,1.289.216l-1.161-1.14a2.671,2.671,0,0,1-1.783.841s1.772-.771,1.625-1.019c-.03-.049-.636-.576-.636-.576a4.413,4.413,0,0,1-2.917,1.416s2.231-.636,2.687-1.625l-.961-.741a4.627,4.627,0,0,1-3.132,1.625s2.322-.745,2.91-1.776l-1.045-.6s-1.393,1.609-2.838,1.558c0,0,2.582-1.131,2.589-1.679a5.8,5.8,0,0,0-1.319-.5s-1.036,1.131-1.858,1.029c0,0,1.644-.94,1.574-1.133a6.23,6.23,0,0,0-2.287-.058,4.526,4.526,0,0,1,2.322-.174,2.505,2.505,0,0,0-1.089-.929s.864-.211,1.442,1.005a5.848,5.848,0,0,1,1.254.427,5.458,5.458,0,0,0-1.038-1.9,2.418,2.418,0,0,1,1.321,2.048l1.063.58a7.835,7.835,0,0,0-.968-2.322s1.005.52,1.224,2.482l.952.717a9.231,9.231,0,0,0-.711-2.3,3.677,3.677,0,0,1,.975,2.515l.578.553s-.214-1.1-.3-1.412-.016-.332-.016-.332a3.828,3.828,0,0,1,.564,2A9.245,9.245,0,0,0,737.693,87.183Z" transform="translate(-581.334 -75.217)" fill="#020887" opacity="0.1"/>
    <path id="Path_194" data-name="Path 194" d="M662.163,108.145s-8.8-.98-8.074,5.264a1.507,1.507,0,0,0,.7,1.625s.04-.464.929-.255a4.272,4.272,0,0,0,.957.1,2,2,0,0,0,1.2-.425h0s2.533-.9,3.715-4.9c0,0,.757-.848.741-1.077l-1.521.562a2.589,2.589,0,0,1,0,1.971s.049-1.93-.232-1.9c-.058,0-.792.334-.792.334a4.428,4.428,0,0,1,.051,3.251s.367-2.294-.332-3.121l-1.08.557a4.615,4.615,0,0,1,.151,3.527s.3-2.41-.379-3.388l-.987.7s.864,1.953.211,3.232c0,0,.067-2.819-.427-3.058a6.044,6.044,0,0,0-1.01.985s.588,1.416.144,2.125c0,0-.156-1.888-.36-1.906a6.244,6.244,0,0,0-1.022,2.048,4.52,4.52,0,0,1,.827-2.178,2.5,2.5,0,0,0-1.3.592s.172-.871,1.519-.88c0,0,.731-.908.929-.957a5.459,5.459,0,0,0-2.16.139,2.409,2.409,0,0,1,2.413-.332l.978-.717a7.531,7.531,0,0,0-2.515-.125s.9-.7,2.768-.058l1.052-.56a9.245,9.245,0,0,0-2.382-.327,3.647,3.647,0,0,1,2.689.179l.748-.29s-1.089-.272-1.409-.323-.332-.139-.332-.139a3.82,3.82,0,0,1,2.053.334A9.5,9.5,0,0,0,662.163,108.145Z" transform="translate(-524.291 -95.766)" fill="#020887" opacity="0.1"/>
    <path id="Path_195" data-name="Path 195" d="M993.778,402.315s-8.8-.98-8.069,5.257a1.507,1.507,0,0,0,.7,1.625s.039-.464.929-.258a4.016,4.016,0,0,0,.957.1,1.981,1.981,0,0,0,1.2-.425h0s2.533-.9,3.7-4.9c0,0,.757-.85.741-1.077l-1.521.56a2.6,2.6,0,0,1,0,1.974s.049-1.932-.232-1.9c-.058,0-.792.332-.792.332a4.429,4.429,0,0,1,.051,3.251s.367-2.292-.332-3.121l-1.08.56a4.622,4.622,0,0,1,.153,3.527s.3-2.41-.381-3.39l-.987.7s.864,1.953.211,3.23c0,0,.067-2.819-.427-3.056a6.13,6.13,0,0,0-1.01.985s.59,1.416.144,2.125c0,0-.156-1.888-.36-1.906a6.242,6.242,0,0,0-1.022,2.048,4.52,4.52,0,0,1,.827-2.178,2.478,2.478,0,0,0-1.3.592s.172-.873,1.519-.882c0,0,.734-.908.929-.954a5.439,5.439,0,0,0-2.159.137,2.415,2.415,0,0,1,2.415-.33l.975-.717a7.76,7.76,0,0,0-2.505-.1s.9-.7,2.768-.06l1.052-.557a9.247,9.247,0,0,0-2.382-.327,3.647,3.647,0,0,1,2.689.179l.748-.293s-1.089-.272-1.41-.32-.332-.139-.332-.139a3.807,3.807,0,0,1,2.053.332A9.09,9.09,0,0,0,993.778,402.315Z" transform="translate(-778.909 -321.629)" fill="#020887" opacity="0.1"/>
    <path id="Path_196" data-name="Path 196" d="M1051.688,437.7s-8.8-.978-8.069,5.257a1.511,1.511,0,0,0,.7,1.625s.039-.464.929-.255a4.1,4.1,0,0,0,.954.093,2.007,2.007,0,0,0,1.191-.423h0s2.531-.9,3.7-4.9c0,0,.759-.848.741-1.077l-1.521.56a2.6,2.6,0,0,1,0,1.974s.049-1.93-.232-1.9c-.058,0-.792.332-.792.332a4.43,4.43,0,0,1,.051,3.251s.367-2.292-.332-3.118l-1.08.557a4.623,4.623,0,0,1,.153,3.527s.3-2.41-.381-3.388l-.987.7s.864,1.953.214,3.232c0,0,.065-2.821-.43-3.058a6.133,6.133,0,0,0-1.01.984s.59,1.416.144,2.125c0,0-.156-1.888-.36-1.906a6.214,6.214,0,0,0-1.02,2.048,4.533,4.533,0,0,1,.825-2.178,2.5,2.5,0,0,0-1.3.592s.174-.873,1.521-.88c0,0,.731-.908.929-.957a5.461,5.461,0,0,0-2.16.139,2.412,2.412,0,0,1,2.415-.332l.975-.717a7.762,7.762,0,0,0-2.506-.1s.9-.7,2.768-.058l1.052-.56a9.249,9.249,0,0,0-2.383-.327,3.647,3.647,0,0,1,2.689.179l.748-.29s-1.089-.272-1.407-.323-.334-.139-.334-.139a3.819,3.819,0,0,1,2.053.334A9.192,9.192,0,0,0,1051.688,437.7Z" transform="translate(-823.372 -348.795)" fill="#020887" opacity="0.1"/>
    <path id="Path_197" data-name="Path 197" d="M916.745,132.494s-7.087-5.3-9.62.441a1.511,1.511,0,0,0-.218,1.76s.265-.374.929.246a4.067,4.067,0,0,0,.776.567,2,2,0,0,0,1.247.232h0s2.638.509,5.677-2.35c0,0,1.082-.348,1.184-.553l-1.6-.288a2.683,2.683,0,0,1-.992,1.7s1.019-1.639.755-1.758c-.054-.026-.85-.116-.85-.116a4.413,4.413,0,0,1-1.6,2.821s1.479-1.79,1.3-2.858l-1.214-.065a4.632,4.632,0,0,1-1.656,3.118s1.481-1.925,1.393-3.114l-1.2.1s-.232,2.12-1.454,2.891c0,0,1.486-2.4,1.18-2.851a5.835,5.835,0,0,0-1.37.337s-.209,1.519-.952,1.9c0,0,.822-1.707.655-1.825a6.243,6.243,0,0,0-1.918,1.247,4.537,4.537,0,0,1,1.816-1.458,2.5,2.5,0,0,0-1.421-.149s.592-.664,1.758.012a5.836,5.836,0,0,1,1.275-.36,5.434,5.434,0,0,0-1.932-.973,2.418,2.418,0,0,1,2.25.929l1.205-.123a7.911,7.911,0,0,0-2.108-1.356s1.122-.142,2.415,1.349l1.191.053a9.307,9.307,0,0,0-1.888-1.491,3.666,3.666,0,0,1,2.227,1.516l.792.128s-.8-.785-1.052-.989-.214-.272-.214-.272a3.818,3.818,0,0,1,1.6,1.328A9.325,9.325,0,0,0,916.745,132.494Z" transform="translate(-718.284 -112.792)" fill="#020887" opacity="0.1"/>
    <path id="Path_198" data-name="Path 198" d="M943.184,284.474s-2.443-8.506-7.937-5.452a1.509,1.509,0,0,0-1.238,1.27s.437-.137.588.752a4.12,4.12,0,0,0,.279.929,2,2,0,0,0,.85.947h0s1.8,2,5.944,1.551c0,0,1.073.376,1.277.274l-1.1-1.194a2.671,2.671,0,0,1-1.818.762s1.8-.7,1.663-.945c-.028-.051-.609-.606-.609-.606a4.4,4.4,0,0,1-2.977,1.284s2.259-.534,2.756-1.5l-.929-.785a4.639,4.639,0,0,1-3.2,1.486s2.341-.643,2.986-1.644l-1.017-.648s-1.474,1.544-2.9,1.428c0,0,2.631-1.015,2.663-1.56a5.8,5.8,0,0,0-1.3-.557s-1.084,1.082-1.909.943c0,0,1.686-.866,1.625-1.061a6.271,6.271,0,0,0-2.283-.163,4.53,4.53,0,0,1,2.322-.067,2.492,2.492,0,0,0-1.045-.975s.873-.174,1.393,1.068a5.79,5.79,0,0,1,1.233.483,5.43,5.43,0,0,0-.952-1.941,2.412,2.412,0,0,1,1.228,2.1l1.036.629a7.722,7.722,0,0,0-.864-2.354,3.048,3.048,0,0,1,1.112,2.533l.929.759a9.21,9.21,0,0,0-.606-2.322,3.669,3.669,0,0,1,.862,2.554l.552.581s-.162-1.11-.232-1.426,0-.36,0-.36a3.806,3.806,0,0,1,.476,2.025A9.2,9.2,0,0,0,943.184,284.474Z" transform="translate(-739.247 -226.5)" fill="#020887" opacity="0.1"/>
    <path id="Path_199" data-name="Path 199" d="M706.031,372.593s-4.744-7.472-9.149-3a1.5,1.5,0,0,0-.831,1.567s.383-.255.778.557a3.971,3.971,0,0,0,.525.8,1.983,1.983,0,0,0,1.08.669h0s2.287,1.412,6.142-.186a3.963,3.963,0,0,0,1.3-.1l-1.393-.836a2.669,2.669,0,0,1-1.532,1.242s1.537-1.161,1.33-1.375c-.039-.042-.755-.409-.755-.409a4.411,4.411,0,0,1-2.5,2.069s2.018-1.149,2.227-2.213l-1.112-.49a4.625,4.625,0,0,1-2.654,2.322s2.067-1.275,2.4-2.417l-1.161-.334s-.98,1.9-2.385,2.187c0,0,2.238-1.714,2.115-2.248a5.766,5.766,0,0,0-1.393-.169s-.736,1.344-1.567,1.442c0,0,1.375-1.3,1.261-1.477a6.257,6.257,0,0,0-2.236.488,4.519,4.519,0,0,1,2.215-.72,2.492,2.492,0,0,0-1.275-.643s.787-.411,1.625.634a5.736,5.736,0,0,1,1.321.116,5.346,5.346,0,0,0-1.461-1.6s1.091.093,1.769,1.674l1.173.311a7.762,7.762,0,0,0-1.491-2.015s1.1.265,1.779,2.12l1.1.464a9.252,9.252,0,0,0-1.238-2.062,3.659,3.659,0,0,1,1.544,2.208l.7.4s-.464-1.019-.629-1.3-.1-.346-.1-.346a3.808,3.808,0,0,1,1.024,1.809A9.446,9.446,0,0,0,706.031,372.593Z" transform="translate(-556.527 -295.453)" fill="#020887" opacity="0.1"/>
    <path id="Path_200" data-name="Path 200" d="M840.477,207.552s-4.512-7.614-9.056-3.281a1.51,1.51,0,0,0-.878,1.542s.388-.246.759.578a4.014,4.014,0,0,0,.5.822,1.972,1.972,0,0,0,1.059.7h0s2.241,1.481,6.144,0c0,0,1.133.1,1.3-.056l-1.363-.878a2.67,2.67,0,0,1-1.57,1.194s1.572-1.122,1.375-1.333c-.042-.044-.743-.434-.743-.434a4.413,4.413,0,0,1-2.554,1.992s2.053-1.087,2.292-2.141l-1.1-.516a4.631,4.631,0,0,1-2.726,2.243s2.106-1.21,2.478-2.341l-1.147-.372s-1.04,1.858-2.452,2.113c0,0,2.29-1.644,2.183-2.18a5.737,5.737,0,0,0-1.393-.214s-.778,1.321-1.611,1.393c0,0,1.414-1.259,1.307-1.435a6.25,6.25,0,0,0-2.25.418,4.533,4.533,0,0,1,2.236-.65,2.5,2.5,0,0,0-1.256-.683s.8-.388,1.625.683a5.881,5.881,0,0,1,1.317.158,5.554,5.554,0,0,0-1.409-1.639s1.087.125,1.716,1.728l1.161.348A7.719,7.719,0,0,0,835,203.247s1.091.3,1.714,2.173l1.08.5a9.327,9.327,0,0,0-1.161-2.09,3.673,3.673,0,0,1,1.477,2.255l.68.423s-.437-1.033-.59-1.319-.088-.348-.088-.348a3.816,3.816,0,0,1,.968,1.839A8.992,8.992,0,0,0,840.477,207.552Z" transform="translate(-659.795 -168.591)" fill="#020887"/>
    <path id="Path_201" data-name="Path 201" d="M725.709,266.232s.232-8.847-5.914-7.6a1.513,1.513,0,0,0-1.565.838s.464,0,.334.894a4.079,4.079,0,0,0-.014.961,1.985,1.985,0,0,0,.522,1.161h0s1.108,2.447,5.2,3.279c0,0,.908.685,1.135.648l-.7-1.467a2.68,2.68,0,0,1-1.964.174s1.927-.114,1.874-.4c0-.058-.4-.764-.4-.764a4.4,4.4,0,0,1-3.225.323s2.322.174,3.081-.59l-.648-1.029a4.638,4.638,0,0,1-3.5.446s2.426.1,3.346-.662l-.773-.929s-1.874,1.026-3.2.483c0,0,2.814-.169,3.019-.683a6.028,6.028,0,0,0-1.068-.929s-1.361.7-2.1.32c0,0,1.857-.311,1.869-.518a6.232,6.232,0,0,0-2.127-.845,4.521,4.521,0,0,1,2.241.641,2.5,2.5,0,0,0-.7-1.247s.885.1,1.005,1.44a5.779,5.779,0,0,1,1.031.836,5.431,5.431,0,0,0-.32-2.139,2.409,2.409,0,0,1,.534,2.375l.8.915a7.778,7.778,0,0,0-.109-2.505s.762.834.293,2.752l.643,1a9.262,9.262,0,0,0,.128-2.4,3.685,3.685,0,0,1,.046,2.7l.353.72s.179-1.108.2-1.43.111-.344.111-.344a3.813,3.813,0,0,1-.16,2.074A8.855,8.855,0,0,0,725.709,266.232Z" transform="translate(-573.572 -211.26)" fill="#020887"/>
    <ellipse id="Ellipse_34" data-name="Ellipse 34" cx="6.253" cy="1.057" rx="6.253" ry="1.057" transform="translate(156.045 165.272)" fill="#020887" opacity="0.1"/>
    <ellipse id="Ellipse_35" data-name="Ellipse 35" cx="6.253" cy="1.057" rx="6.253" ry="1.057" transform="translate(133.25 181.312)" fill="#020887" opacity="0.1"/>
    <ellipse id="Ellipse_36" data-name="Ellipse 36" cx="6.253" cy="1.057" rx="6.253" ry="1.057" transform="translate(15.371 173.095)" fill="#020887" opacity="0.1"/>
    <ellipse id="Ellipse_37" data-name="Ellipse 37" cx="6.253" cy="1.057" rx="6.253" ry="1.057" transform="translate(180.68 180.256)" fill="#020887" opacity="0.1"/>
    <ellipse id="Ellipse_38" data-name="Ellipse 38" cx="9.337" cy="1.579" rx="9.337" ry="1.579" transform="translate(184.107 166.328)" fill="#020887"/>
    <path id="Path_202" data-name="Path 202" d="M916.442,752.78a2.7,2.7,0,0,0,.889-1.342,1.193,1.193,0,0,0-.62-1.368,1.753,1.753,0,0,0-1.646.576,2.206,2.206,0,0,1-1.6.773,2.437,2.437,0,0,0,.752-2.278.953.953,0,0,0-.209-.464c-.318-.339-.892-.193-1.272.074-1.207.85-1.544,2.489-1.551,3.966a7.457,7.457,0,0,1-.021-1.626,1.668,1.668,0,0,0-.615-1.444,1.838,1.838,0,0,0-.929-.232,1.94,1.94,0,0,0-1.519.432,1.5,1.5,0,0,0,.058,1.858,6.006,6.006,0,0,0,1.572,1.258,3.512,3.512,0,0,1,1.124,1.071,1.086,1.086,0,0,1,.081.19h3.4A9.393,9.393,0,0,0,916.442,752.78Z" transform="translate(-719.127 -587.457)" fill="#020887"/>
    <path id="Path_203" data-name="Path 203" d="M170.29,777.5s3.564-.109,4.644-.875,5.487-1.679,5.754-.45,5.359,6.1,1.333,6.137-9.355-.627-10.428-1.282S170.29,777.5,170.29,777.5Z" transform="translate(-152.864 -608.258)" fill="#a8a8a8"/>
    <path id="Path_204" data-name="Path 204" d="M182.088,788.239c-4.026.032-9.355-.627-10.428-1.282-.817-.5-1.142-2.282-1.252-3.107h-.118s.232,2.877,1.3,3.529,6.4,1.314,10.428,1.282c1.161,0,1.563-.423,1.542-1.036C183.4,788,182.952,788.232,182.088,788.239Z" transform="translate(-152.864 -614.614)" opacity="0.2"/>
  </g>
</svg>
