<svg id="Group_712" data-name="Group 712" xmlns="http://www.w3.org/2000/svg" xmlns:xlink="http://www.w3.org/1999/xlink" width="229.131" height="184.823" viewBox="0 0 229.131 184.823">
  <defs>
    <linearGradient id="linear-gradient" y1="0.5" x2="1" y2="0.5" gradientUnits="objectBoundingBox">
      <stop offset="0" stop-color="gray" stop-opacity="0.251"/>
      <stop offset="0.54" stop-color="gray" stop-opacity="0.122"/>
      <stop offset="1" stop-color="gray" stop-opacity="0.102"/>
    </linearGradient>
    <linearGradient id="linear-gradient-2" x1="12.106" y1="0.5" x2="13.106" y2="0.5" xlink:href="#linear-gradient"/>
  </defs>
  <ellipse id="Ellipse_39" data-name="Ellipse 39" cx="103.546" cy="92.411" rx="103.546" ry="92.411" transform="translate(14.319 0)" fill="#020887" opacity="0.1"/>
  <ellipse id="Ellipse_40" data-name="Ellipse 40" cx="38.179" cy="5.918" rx="38.179" ry="5.918" transform="translate(0 133.765)" fill="#020887" opacity="0.1"/>
  <ellipse id="Ellipse_41" data-name="Ellipse 41" cx="14.85" cy="3.068" rx="14.85" ry="3.068" transform="translate(41.68 167.658)" fill="#020887" opacity="0.1"/>
  <ellipse id="Ellipse_42" data-name="Ellipse 42" cx="14.85" cy="3.068" rx="14.85" ry="3.068" transform="translate(143.15 155.856)" fill="#020887" opacity="0.1"/>
  <ellipse id="Ellipse_43" data-name="Ellipse 43" cx="24.148" cy="4.091" rx="24.148" ry="4.091" transform="translate(83.462 151.234)" fill="#020887" opacity="0.1"/>
  <ellipse id="Ellipse_44" data-name="Ellipse 44" cx="50.368" cy="7.889" rx="50.368" ry="7.889" transform="translate(128.395 127.186)" fill="#020887" opacity="0.1"/>
  <path id="Path_205" data-name="Path 205" d="M125.476,500.99a14.015,14.015,0,0,0,.73,14.071,3.481,3.481,0,0,0,1.179,1.272c1.565.615,4.7,2.127,4.7,2.127l7.547-2.966s1.225-6.482,2.384-12.046h0a67.288,67.288,0,0,1,1.867-7.754c.781-1.454,0-17.283,0-17.283s-7.547-.506-9.622,5.312l-.908,1.776Z" transform="translate(-115.036 -379.684)" fill="#a8a8a8"/>
  <path id="Path_206" data-name="Path 206" d="M166.979,502.747c4.588,5.259,6.524.71,6.524.71h0a67.294,67.294,0,0,1,1.867-7.754c.781-1.454,0-17.283,0-17.283s-7.547-.506-9.622,5.312l-.908,1.776C164.257,490.163,163.682,498.962,166.979,502.747Z" transform="translate(-146.52 -379.692)" fill="#fff" opacity="0.1"/>
  <path id="Path_207" data-name="Path 207" d="M180.59,454.489l26.637-3.077,4.752-31.271-3.594-8.122a32.909,32.909,0,0,0-6.215-9.376,19.065,19.065,0,0,0-6.3-4.661,9.451,9.451,0,0,0-.961-.329,2.488,2.488,0,0,0-2.22.393c-3.285,2.328-4.459,12.228-4.839,16.994a53.183,53.183,0,0,1-.792,5.836Z" transform="translate(-159.123 -316.778)" fill="#a8a8a8"/>
  <path id="Path_208" data-name="Path 208" d="M240.7,419.8l-5.549,13.651c2.908-2.127,7.216-13.707,7.216-13.707l3.86,13.2-3.077-13.915a43.52,43.52,0,0,0,.391-9.132c-.244-3.494-3.523-9.1-5.3-11.924a9.437,9.437,0,0,0-.961-.329,2.488,2.488,0,0,0-2.22.393c1.4,2.808,4.895,9.829,5.96,11.915C242.372,412.58,240.7,419.8,240.7,419.8Z" transform="translate(-201.502 -316.77)" fill="#fff" opacity="0.1"/>
  <path id="Path_209" data-name="Path 209" d="M280.89,530.844h14.453a4.384,4.384,0,0,0,4.38-4.606c-.32-6.2-1.13-17.247-3.057-24.262-1.041-3.785-2.251-5.771-3.361-6.75a3.279,3.279,0,0,0-1.911-.9,2.508,2.508,0,0,0-1.554.377c-2.684,2.573-5.818,16.111-5.818,16.111Z" transform="translate(-237.159 -392.069)" fill="#a8a8a8"/>
  <path id="Path_210" data-name="Path 210" d="M302.745,585.034a7.1,7.1,0,0,1,0,5.405l-3.221,1.591s-8.657-3.669-7.6-11.19c0,0,.284-1.554,3.265-1.434A8.451,8.451,0,0,1,302.745,585.034Z" transform="translate(-245.671 -458.266)" fill="#fff" opacity="0.1"/>
  <path id="Path_211" data-name="Path 211" d="M311.192,499.1c-.1-2.637,1.332-3.552,2.515-3.842a3.278,3.278,0,0,0-1.911-.9,5.074,5.074,0,0,0-1.667,2.664l-3.019,14.714S311.361,503.521,311.192,499.1Z" transform="translate(-257.559 -392.102)" fill="#fff" opacity="0.1"/>
  <path id="Path_212" data-name="Path 212" d="M183.592,568.14l7.156,9.789,1.241,8.08-4.6,2.271-6.63,1.465a6.372,6.372,0,0,1-1.947.127L160.72,588.28l2.462-5.707,8.5-11.935Z" transform="translate(-143.664 -449.505)" fill="#a8a8a8"/>
  <path id="Path_213" data-name="Path 213" d="M189.419,552.986s4.883.335,3.05,8.726-20.7,9.063-20.7,9.063a49.565,49.565,0,0,1,10.175-12.193c.693-.57,1.361-1.165,2-1.8C185.361,555.364,188.074,552.871,189.419,552.986Z" transform="translate(-152.261 -437.712)" fill="#fff" opacity="0.1"/>
  <path id="Path_214" data-name="Path 214" d="M271.07,581.5s6.617,6.022,5.993,15.289" transform="translate(-229.519 -459.899)" opacity="0.1"/>
  <path id="Path_215" data-name="Path 215" d="M294.152,496.06A46.231,46.231,0,0,0,286.43,519.5" transform="translate(-241.47 -393.424)" opacity="0.1"/>
  <path id="Path_216" data-name="Path 216" d="M196.23,478.43s3.361,15.261-5.03,26.763" transform="translate(-167.378 -379.708)" opacity="0.1"/>
  <path id="Path_217" data-name="Path 217" d="M482.506,600.977h36.213a2.029,2.029,0,0,0,1.776-2.99l-18.1-33.624a2.027,2.027,0,0,0-3.569,0l-18.106,33.624a2.029,2.029,0,0,0,1.785,2.99Zm20.41-6.144h-4.608v-4.606h4.608Zm0-7.678h-4.608V577.94h4.608Z" transform="translate(-392.445 -445.736)" fill="#464353"/>
  <path id="Path_218" data-name="Path 218" d="M482.506,600.977h36.213a2.029,2.029,0,0,0,1.776-2.99l-18.1-33.624a2.027,2.027,0,0,0-3.569,0l-18.106,33.624a2.029,2.029,0,0,0,1.785,2.99Zm20.41-6.144h-4.608v-4.606h4.608Zm0-7.678h-4.608V577.94h4.608Z" transform="translate(-392.445 -445.736)" opacity="0.1"/>
  <path id="Path_219" data-name="Path 219" d="M482.506,605.977h36.213a2.029,2.029,0,0,0,1.776-2.99l-18.1-33.624a2.027,2.027,0,0,0-3.569,0l-18.106,33.624a2.029,2.029,0,0,0,1.785,2.99Zm20.41-6.144h-4.608v-4.606h4.608Zm0-7.678h-4.608V582.94h4.608Z" transform="translate(-392.445 -449.626)" fill="#464353"/>
  <path id="Path_220" data-name="Path 220" d="M156.425,324.731a2.488,2.488,0,0,0-.513-.249c-.595-.222-1.23-.28-1.825-.493a2.613,2.613,0,0,1-.917-.542c-.044-.044-.087-.089-.127-.135.222-.14.424-.28.644-.411a7.627,7.627,0,0,0-2.677-2.664c.357-.526,1.163-.484,1.634-.908a1.554,1.554,0,0,0,.444-.872,6.029,6.029,0,0,0-.26-2.635,32.478,32.478,0,0,0-1.532-4.961,19.546,19.546,0,0,1-.83-2.011c-.575-1.913-.173-4-.608-5.951a4.174,4.174,0,0,1-.209-1.9c.242-.963,1.319-1.534,1.554-2.5.852-3.429,1.006-6.988,1.489-10.488a13.5,13.5,0,0,0,.18-2.013c0-.708-.127-1.41-.178-2.115a38.486,38.486,0,0,1,.431-5.942,6.214,6.214,0,0,1,.806,1.987,8.019,8.019,0,0,1,.047,1.971,9.258,9.258,0,0,1-.14,1.312c-.109.515-.3,1.008-.426,1.523a4.708,4.708,0,0,0,.211,3.054c.3.666.966,1.283,1.656,1.083a1.789,1.789,0,0,0,.979-1.063,6.488,6.488,0,0,0,.588-4.548,13.661,13.661,0,0,1-1-2.946,7.613,7.613,0,0,1,.1-1.245c.277-2.411-.322-4.832-.455-7.256a14.153,14.153,0,0,0-.122-2.12c-.018-.082-.038-.164-.062-.242a.52.52,0,0,1,.16.073,1.447,1.447,0,0,0-.031-1.241,3.157,3.157,0,0,1-.209-.391c-.084-.222-.069-.479-.173-.693a2.953,2.953,0,0,0-.222-.322,2.583,2.583,0,0,1-.309-1.456q-.051-3.942-.222-7.876a12.9,12.9,0,0,0-.6-3.944,5.913,5.913,0,0,0-2.087-2.768,4.86,4.86,0,0,0-.468-.293,1.625,1.625,0,0,0,.133-.6,1.429,1.429,0,0,0,0-.2l-.013-.111h0a4.684,4.684,0,0,0-.444-1.332,3.743,3.743,0,0,1-.424-1.456,2.264,2.264,0,0,1,.016-.275h0c.075-.639.408-1.239.526-1.878a3.221,3.221,0,0,0,.049-.6c0-.069,0-.14,0-.211a6.051,6.051,0,0,0-.713-2.242c-.111-.222-.222-.444-.346-.666-.058-.415-.122-.83-.186-1.243-.036-.24-.073-.479-.124-.717q-.038-.178-.087-.346c.344-.324.144-.8-.075-1.239a10.26,10.26,0,0,1-.515-2.75,8.309,8.309,0,0,0-.653-1.847,4.115,4.115,0,0,0-.708-1.163,4.342,4.342,0,0,0-.917-.666,2.919,2.919,0,0,0-.91-.411c-.2-.04-.408-.038-.608-.084a1.929,1.929,0,0,1-.373-.135,2.537,2.537,0,0,0-.8-.291,1.776,1.776,0,0,0-.768.146,2.826,2.826,0,0,1-.826.222h-.313a.7.7,0,0,0-.424.1,1.6,1.6,0,0,0-.182.186,2.456,2.456,0,0,1-.535.366,5.272,5.272,0,0,0-2.588,4.506,2.234,2.234,0,0,1-.064.73c-.064.186-.191.348-.244.539a1.514,1.514,0,0,0-.024.506c.018.26.044.517.073.777h0a1.634,1.634,0,0,0-.324.717h0a.976.976,0,0,0-.02.138v.018h0a4.019,4.019,0,0,0,.337,1.332,4.733,4.733,0,0,1-.067,2.613,10.289,10.289,0,0,0-.444,1.776h0v.04a2.147,2.147,0,0,0,.1.888c.073.2.182.391.249.595a2.451,2.451,0,0,1-.559,2.118h0c-.071.1-.144.2-.222.289h.011l-.011.011.462.326c-.135.071-.271.149-.408.222a4.2,4.2,0,0,0-1.5.557,6.117,6.117,0,0,0-1.221.812,5.179,5.179,0,0,0-.963,1.332,16.736,16.736,0,0,0-.817,1.723,5.4,5.4,0,0,0-.417,1.494c-.191.406-.348.843-.524,1.236-.089.2-.175.4-.262.606l-7.64-18.708-1.185.493.093.222-.246.1.335.817c-.049.033-.1.067-.144.1l-.062.049-.124.1-.062.051-.127.107-.047.04-.158.144h0c-.169.153-.331.315-.488.477l-.406.42-.078.082-.135.138-.075.078-.193.193-.013.013-.12.115-.075.071c-.031.031-.064.06-.1.089l-.093.087-.151.129-.044.04-.206.164a5.789,5.789,0,0,1-.888.57c-1.214.628-2.5,1.154-3.685,1.827a10.609,10.609,0,0,0-1.825,1.279,14.5,14.5,0,0,1-2.355,2.058l-.1.053c-1.607.826-3.5.331-5.327.3-.273,0-.542,0-.808.018a10.2,10.2,0,0,0-4.151,1.449c-.923.517-1.825,1.1-2.73,1.625-.573.331-1.148.69-1.725,1.059a38.981,38.981,0,0,1-4.482,2.61,9.419,9.419,0,0,1-4.439.988h-.02a3.7,3.7,0,0,1-.444-.038c-.144,1.165.788,2.1,1.41,3.13a3.172,3.172,0,0,1,.526,1.483,2.663,2.663,0,0,1-.044.595,7.474,7.474,0,0,0-.366,2.149,2.488,2.488,0,0,0,.473,1.168c.4.564.943,1.065,1.316,1.654a8.909,8.909,0,0,1,.93,3.014,6.342,6.342,0,0,0,.73,2.089,8.924,8.924,0,0,0,1.9,1.924c.127.109.251.222.371.333.089.08.175.164.257.251a2.963,2.963,0,0,1,.919,3.123c-.016.036-.033.067-.051.1a.888.888,0,0,0,.122.073c.619.3,1.4-.182,1.9-.695.251-.251.488-.517.719-.788.619-.688,1.188-1.434,1.776-2.149.16-.193.32-.382.484-.568a8.212,8.212,0,0,1,2.193-1.776,8.054,8.054,0,0,1,1.345-.546c.688-.222,1.4-.386,2.089-.6a17.161,17.161,0,0,0,2.75-1.154,42.3,42.3,0,0,0,4.439-2.752l.222-.144a7.607,7.607,0,0,0,1.321-1.054c.071-.078.14-.158.2-.24.346-.444.57-.97.888-1.432a4.606,4.606,0,0,1,1.245-1.2,18.35,18.35,0,0,1,4.815-1.776h.018a18.712,18.712,0,0,0,7.585-4.5l1.216,2.979q-.189.528-.357,1.068a8.68,8.68,0,0,1-1.023,2.553,1.9,1.9,0,0,0-.386.686,2.219,2.219,0,0,1-.091.551c-.075.151-.233.251-.3.406-.093.222.029.508-.1.717a1.13,1.13,0,0,1-.211.222,1.474,1.474,0,0,0-.4,1.13,3.958,3.958,0,0,1-.1,1.225,2.931,2.931,0,0,1,.286-.149,1.331,1.331,0,0,0-.024.222,2.473,2.473,0,0,0,.078.624,4.925,4.925,0,0,0,.648,1.3,9.214,9.214,0,0,0,.695,1,9.1,9.1,0,0,0,1.469,1.314l2.237,1.727-.222.934a26.118,26.118,0,0,0-1.006,5.96,25.677,25.677,0,0,0,.18,2.861l.193,1.949c.155,1.569.311,3.139.482,4.708a12.056,12.056,0,0,0,.573,2.935c.528,1.423-.055,3.03.169,4.535a8.012,8.012,0,0,1,.175,3.536c-.142.444-.391.87-.573,1.31a9.828,9.828,0,0,0-.539,3.489,14.83,14.83,0,0,0,.113,3.108,12.783,12.783,0,0,1,.531,3.179c-.115,1.529-1.234,2.837-1.37,4.366a6.441,6.441,0,0,0,.992,3.478c.42.8-.166,1.827-.388,2.7-.444,1.72.293,3.518,1.192,5.043a.249.249,0,0,0,.113.12c.1.038.2-.064.264-.151a1.815,1.815,0,0,1,.133-.158c0,.069.013.138.018.2,0,.144.011.289.011.444a4.462,4.462,0,0,0,.3,1.643,2.909,2.909,0,0,0,.124.3,1.372,1.372,0,0,0,.222.357,1.356,1.356,0,0,0,.888.373,11.5,11.5,0,0,0,2.22-.138c.781-.067,1.565-.038,2.348-.056a.339.339,0,0,0,.175-.038.3.3,0,0,0,.1-.16,1.776,1.776,0,0,0,.038-.875,6.2,6.2,0,0,0-.166-.695c-.1-.366-.2-.735-.291-1.11-.018-.069-.033-.138-.049-.206l.036.016q.717-1.612,1.436-3.223a2.9,2.9,0,0,0,.368-1.716,5.043,5.043,0,0,0-.542-1.152,6.763,6.763,0,0,1-.468-2.961l-.027-5.709a12.506,12.506,0,0,0,2.22-4.846,15.673,15.673,0,0,1,.131,7.547,7.031,7.031,0,0,0-.211,1.15c-.087,1.583,1.145,2.923,1.474,4.473a1.008,1.008,0,0,1,.024.364,1.365,1.365,0,0,1-.182.422,6.579,6.579,0,0,0-.444,3.616l.26.042a.688.688,0,0,0,.275.271h0a1.358,1.358,0,0,0,.344.142,8.47,8.47,0,0,0,1.294.2c.626.062,1.254.124,1.882.164.249.016.5.029.746.035a7.449,7.449,0,0,1,1.045.073,7.55,7.55,0,0,1,1.109.322,7.09,7.09,0,0,0,5,.175,2.251,2.251,0,0,0,.912-.646,1.074,1.074,0,0,0-.269-1.669Zm-21.469-63.278c.235.468.471.935.666,1.421a4.9,4.9,0,0,1,.373,2.979c-.071.289-.535.511-.533.808a.666.666,0,0,0-.036.069l-1.449-3.552A12.669,12.669,0,0,1,134.956,261.453ZM133.364,269a6.143,6.143,0,0,1-.786-1.356c-.027-.06-.055-.118-.082-.178a.533.533,0,0,0,.211-.158c.222-.28.1-.688.135-1.048a2.264,2.264,0,0,1,.353-.888l1.361,3.33q-.206.542-.386,1.094A7.77,7.77,0,0,1,133.364,269Z" transform="translate(-86.255 -186.489)" fill="url(#linear-gradient)"/>
  <path id="Path_221" data-name="Path 221" d="M315.535,259.591a3.975,3.975,0,0,0,.342,1.332,4.713,4.713,0,0,1-.064,2.606,4.506,4.506,0,0,0-.349,2.695c.073.2.184.391.251.595a2.731,2.731,0,0,1-.795,2.422l2.2,1.538a2.523,2.523,0,0,0,1.11.531.869.869,0,0,0,.972-.575c.029-.138,0-.282.027-.422a1.145,1.145,0,0,1,.615-.852,2.011,2.011,0,0,1,1.063-.2c1.347.073,2.493.959,3.718,1.527a14.956,14.956,0,0,0,2.5.83,2.01,2.01,0,0,0,1.465,0,1.389,1.389,0,0,0,.608-1.312,4.29,4.29,0,0,0-.466-1.445,3.675,3.675,0,0,1-.428-1.454,12.106,12.106,0,0,1,.546-2.158,4.919,4.919,0,0,0-.679-3.045,12.9,12.9,0,0,1-1.294-2.886,4.22,4.22,0,0,0-.242-.912,2.079,2.079,0,0,0-.444-.595,4.969,4.969,0,0,0-3.148-1.285,14.261,14.261,0,0,0-3.452.3,7.216,7.216,0,0,0-1.281.3,8.133,8.133,0,0,0-1.685.912A2.194,2.194,0,0,0,315.535,259.591Z" transform="translate(-263.636 -207.046)" fill="#464353"/>
  <g id="Group_709" data-name="Group 709" transform="translate(51.278 52.399)" opacity="0.1">
    <path id="Path_222" data-name="Path 222" d="M375.17,294.794a.976.976,0,0,0,.013.2c.069-.65.411-1.261.533-1.911a3.157,3.157,0,0,0,.042-.79,2.167,2.167,0,0,1-.042.346A11.224,11.224,0,0,0,375.17,294.794Z" transform="translate(-361.789 -287.285)"/>
    <path id="Path_223" data-name="Path 223" d="M318.174,272.106a3.977,3.977,0,0,0-.149-1.332,7.72,7.72,0,0,1-.322-1.034c0,.047-.018.091-.02.138a3.974,3.974,0,0,0,.342,1.332A3.75,3.75,0,0,1,318.174,272.106Z" transform="translate(-317.062 -269.74)"/>
    <path id="Path_224" data-name="Path 224" d="M329.152,313.271a1.27,1.27,0,0,1-.595.979,2.01,2.01,0,0,1-1.465,0,14.769,14.769,0,0,1-2.5-.832c-1.225-.566-2.371-1.452-3.718-1.525a2.011,2.011,0,0,0-1.063.2,1.145,1.145,0,0,0-.615.852c-.016.14,0,.284-.027.422a.87.87,0,0,1-.972.575,2.524,2.524,0,0,1-1.11-.531l-1.973-1.385c-.073.1-.146.2-.222.289l2.2,1.54a2.524,2.524,0,0,0,1.11.531.869.869,0,0,0,.972-.575c.029-.138,0-.282.027-.422a1.145,1.145,0,0,1,.615-.852,2.011,2.011,0,0,1,1.063-.2c1.347.073,2.493.959,3.718,1.525a14.765,14.765,0,0,0,2.5.832,2.01,2.01,0,0,0,1.465,0,1.389,1.389,0,0,0,.608-1.312C329.163,313.344,329.156,313.309,329.152,313.271Z" transform="translate(-314.89 -302.53)"/>
    <path id="Path_225" data-name="Path 225" d="M317.221,297.658a1.72,1.72,0,0,1,.06.273,1.609,1.609,0,0,0-.06-.717c-.067-.2-.178-.391-.251-.595a1.858,1.858,0,0,1-.1-.459,2.087,2.087,0,0,0,.1.9C317.043,297.268,317.154,297.456,317.221,297.658Z" transform="translate(-316.42 -290.296)"/>
  </g>
  <path id="Path_226" data-name="Path 226" d="M307.347,666.438a.29.29,0,0,1-.1.16.339.339,0,0,1-.175.038c-.79.018-1.58,0-2.368.055a11.335,11.335,0,0,1-2.237.138,1.148,1.148,0,0,1-1.11-.73,2.908,2.908,0,0,1-.124-.3,4.419,4.419,0,0,1-.3-1.643v-.444a3.369,3.369,0,0,0-.064-.484.735.735,0,0,1,.022-.562,1.963,1.963,0,0,1,1.663-.735,13.729,13.729,0,0,1,4.051.3c.1.511.222,1.017.346,1.523q.138.557.293,1.11a6.216,6.216,0,0,1,.169.695A1.775,1.775,0,0,1,307.347,666.438Z" transform="translate(-252.662 -522.449)" fill="#464353"/>
  <path id="Path_227" data-name="Path 227" d="M308.8,679.291a.291.291,0,0,1-.1.16.34.34,0,0,1-.175.038c-.79.018-1.58,0-2.368.056a11.326,11.326,0,0,1-2.237.138,1.148,1.148,0,0,1-1.11-.73,2.914,2.914,0,0,1-.124-.3h.284c.935,0,1.871-.033,2.806-.033a7.18,7.18,0,0,0,.846-.047c.28-.033.508-.08.764-.111a10.466,10.466,0,0,1,1.15-.047h.315A1.775,1.775,0,0,1,308.8,679.291Z" transform="translate(-254.112 -535.302)" opacity="0.06"/>
  <path id="Path_228" data-name="Path 228" d="M359.192,651.441a2.271,2.271,0,0,1-.919.646,7.256,7.256,0,0,1-5.039-.175,7.687,7.687,0,0,0-1.121-.322,7.534,7.534,0,0,0-1.05-.073c-.251,0-.5-.02-.753-.036-.635-.04-1.267-.1-1.9-.164a8.583,8.583,0,0,1-1.305-.2,1.389,1.389,0,0,1-.348-.142h0a.535.535,0,0,1-.32-.477c.018-.282.311-.444.568-.566a27.755,27.755,0,0,1,7.23-1.76,2.9,2.9,0,0,0,.726-.222c.277-.111.306.071.444.275a1.716,1.716,0,0,0,.222.262,2.645,2.645,0,0,0,.923.542c.6.222,1.241.282,1.84.493a2.524,2.524,0,0,1,.517.249,1.07,1.07,0,0,1,.271,1.669Z" transform="translate(-288.159 -511.574)" fill="#464353"/>
  <path id="Path_229" data-name="Path 229" d="M372.761,657.939a2.27,2.27,0,0,1-.919.646,7.256,7.256,0,0,1-5.039-.175,7.681,7.681,0,0,0-1.121-.322,7.563,7.563,0,0,0-1.05-.073c-.251,0-.5-.02-.752-.035.2-.193.413-.382.626-.564a1.865,1.865,0,0,1,.526-.346,1.523,1.523,0,0,1,.748-.051c1.27.175,2.411,1.065,3.691.988a4.542,4.542,0,0,0,1.7-.548,2.963,2.963,0,0,0,1.11-.79,1.281,1.281,0,0,0,.206-.4,1.07,1.07,0,0,1,.271,1.669Z" transform="translate(-301.728 -518.072)" opacity="0.06"/>
  <path id="Path_230" data-name="Path 230" d="M383.821,423.577a1.838,1.838,0,0,1-.986,1.063c-.7.2-1.367-.426-1.671-1.083a4.679,4.679,0,0,1-.222-3.054c.127-.513.32-1.006.428-1.521a9.253,9.253,0,0,0,.142-1.312,8.02,8.02,0,0,0-.047-1.971c-.357-1.907-2-3.33-2.544-5.2a9.711,9.711,0,0,1-.246-2.9,2.985,2.985,0,0,1,.075-.732,1.142,1.142,0,0,1,.067-.191c.366-.812,1.452-.923,2.206-1.4.417-.26,1.365-1.1,1.716-.333a2.511,2.511,0,0,1,.169.531,14.111,14.111,0,0,1,.122,2.118c.135,2.424.739,4.843.459,7.254a7.564,7.564,0,0,0-.1,1.243,13.454,13.454,0,0,0,1.012,2.946A6.359,6.359,0,0,1,383.821,423.577Z" transform="translate(-313.234 -322.286)" fill="#fbbebe"/>
  <path id="Path_231" data-name="Path 231" d="M383.248,405.459a.748.748,0,0,0-.511,0l-1.5.444a9.305,9.305,0,0,0-1.534.557,3.6,3.6,0,0,0-.61.38,1.145,1.145,0,0,1,.067-.191c.366-.812,1.452-.923,2.206-1.4.417-.26,1.365-1.1,1.716-.333A2.511,2.511,0,0,1,383.248,405.459Z" transform="translate(-313.562 -322.271)" opacity="0.1"/>
  <path id="Path_232" data-name="Path 232" d="M372.92,339.033a.679.679,0,0,0-.608-.049l-1.5.444a9.305,9.305,0,0,0-1.534.557,3.524,3.524,0,0,0-.73.475,9.866,9.866,0,0,1-1.017-4.062c-.071-.815-.124-1.632-.155-2.442a10.947,10.947,0,0,1,.036-1.749c.084-.666.277-1.316.4-1.978a9.029,9.029,0,0,0,.138-1.172,11.46,11.46,0,0,0-.118-2.573,15.943,15.943,0,0,0-.617-2.664c-.142-.4-.313-.781-.468-1.172l-.053-.138a16.178,16.178,0,0,1-.686-2.2c-.071-.306-.075-.628-.311-.837a4.178,4.178,0,0,1,.666-.027h.133a4.979,4.979,0,0,1,2.539.888,5.933,5.933,0,0,1,2.1,2.784,12.809,12.809,0,0,1,.606,3.942q.18,3.933.222,7.871a2.513,2.513,0,0,0,.311,1.456,2.973,2.973,0,0,1,.222.322c.1.222.089.468.173.693a3.507,3.507,0,0,0,.211.391A1.432,1.432,0,0,1,372.92,339.033Z" transform="translate(-303.136 -256.013)" fill="#464353"/>
  <path id="Path_233" data-name="Path 233" d="M329.366,289.532c-.222-.073-.444-.151-.666-.222l.462.036a.931.931,0,0,1,.2.186Z" transform="translate(-274.357 -232.567)" fill="#fbbebe"/>
  <path id="Path_234" data-name="Path 234" d="M334.594,298.337c-.044.151-.089.3-.138.444a8.482,8.482,0,0,1-.411,1.068,4.968,4.968,0,0,1-1.05,1.523,1.394,1.394,0,0,1-.524.346,1.664,1.664,0,0,1-.515.049q-.888,0-1.776-.027a6.306,6.306,0,0,1-1.372-.135,4.9,4.9,0,0,1-1.4-.63,8.3,8.3,0,0,1-3.6-4.439.736.736,0,0,1,.038-.7.859.859,0,0,1,.566-.193h.027a3.575,3.575,0,0,0,1.352-.464,1.39,1.39,0,0,0,.617-.63,1.7,1.7,0,0,0-.02-.981l-.493-2.237a2.317,2.317,0,0,0-.393-1c.144.051.289.1.444.138,1.372.371,2.872.146,4.217.633a1.8,1.8,0,0,1,1.185,1.057c.26.888-.608,1.809-.36,2.7.166.6.781.952,1.332,1.234l.371.189,1.028.522.142.071.022.011a1.394,1.394,0,0,1,.779.717,1.332,1.332,0,0,1-.067.739Z" transform="translate(-270.496 -233.361)" fill="#fbbebe"/>
  <path id="Path_235" data-name="Path 235" d="M337.3,321.276a4.793,4.793,0,0,1-.408,1.643,6.71,6.71,0,0,0-.7,2.886c-.171,3-1.31,6.564.322,9.081.04.062.08.124.118.189a3.524,3.524,0,0,0-.73.475,9.866,9.866,0,0,1-1.017-4.062c-.071-.815-.124-1.631-.155-2.442a10.947,10.947,0,0,1,.036-1.749c.084-.666.277-1.316.4-1.978a9.024,9.024,0,0,0,.138-1.172,11.46,11.46,0,0,0-.118-2.573,15.941,15.941,0,0,0-.617-2.664c-.142-.4-.313-.781-.468-1.172l-.053-.138a4.968,4.968,0,0,1-1.05,1.523,1.394,1.394,0,0,1-.524.346,1.663,1.663,0,0,1-.515.049q-.888,0-1.776-.027a6.3,6.3,0,0,1-1.372-.135,4.9,4.9,0,0,1-1.4-.63,8.3,8.3,0,0,1-3.6-4.439.735.735,0,0,1,.038-.7.859.859,0,0,1,.566-.193h.027l2,2.471a4,4,0,0,1,.577.863.515.515,0,0,0,.178.264.455.455,0,0,0,.222.04h6.251a1.622,1.622,0,0,0-.275-.935c-.058.013-.135.018-.016-.018a6.291,6.291,0,0,0-.688-2.058,1.414,1.414,0,0,0-.069-.129,2.366,2.366,0,0,1-.329-.719.911.911,0,0,1,1.263.686c.1.222.2.46.3.693,0,.024.022.051.031.076a5.026,5.026,0,0,1,.368,1.441c.013.182.058.413.209.473a.2.2,0,0,0,.075.018.839.839,0,0,1,.908.222,2,2,0,0,1,.444.875,4.787,4.787,0,0,0,.315.941c.286.546-.151.79.366,1.125a1.8,1.8,0,0,1,.608.546A1.7,1.7,0,0,1,337.3,321.276Z" transform="translate(-270.496 -251.088)" opacity="0.1"/>
  <path id="Path_236" data-name="Path 236" d="M306.507,662.272c.1.511.222,1.017.346,1.523l-.013.031a10.3,10.3,0,0,0-3.161-1.006,3.5,3.5,0,0,0-2.843.935,3.37,3.37,0,0,0-.064-.484.735.735,0,0,1,.022-.562,1.963,1.963,0,0,1,1.663-.735A13.731,13.731,0,0,1,306.507,662.272Z" transform="translate(-252.592 -522.48)" opacity="0.1"/>
  <path id="Path_237" data-name="Path 237" d="M365.945,328.37c.1,0,.067,0,.016.018S365.826,328.406,365.945,328.37Z" transform="translate(-303.287 -262.957)" opacity="0.1"/>
  <path id="Path_238" data-name="Path 238" d="M355.641,648.489a19.281,19.281,0,0,0-2.779,2.151,2.911,2.911,0,0,1-.877.641,2.563,2.563,0,0,1-1.057.109,35.965,35.965,0,0,1-4.169-.413h0a.535.535,0,0,1-.32-.477c.018-.282.311-.444.568-.566a27.755,27.755,0,0,1,7.23-1.76,2.9,2.9,0,0,0,.726-.222c.277-.111.306.071.444.275A1.711,1.711,0,0,0,355.641,648.489Z" transform="translate(-288.159 -511.575)" opacity="0.1"/>
  <path id="Path_239" data-name="Path 239" d="M295.922,314.026c.326.291.7.526,1.03.808a9.317,9.317,0,0,1,2,2.83,1.851,1.851,0,0,1-1.019.069,7.308,7.308,0,0,0,.087,2.968,2.752,2.752,0,0,0-.992,1.232,8.234,8.234,0,0,0-.324,1.554q-.479,3.465-.963,6.93a1.074,1.074,0,0,1-.222.624,1.2,1.2,0,0,0-.169.166.921.921,0,0,0-.078.477c-.013.162-.12.355-.282.333a.351.351,0,0,1-.2-.129,4.53,4.53,0,0,1-.444-.55,35.709,35.709,0,0,0-2.633,7.969,19.3,19.3,0,0,0-.835,8.817l.2,1.949c.158,1.567.315,3.136.486,4.7a11.841,11.841,0,0,0,.579,2.934c.533,1.423-.058,3.028.169,4.533a7.971,7.971,0,0,1,.175,3.534c-.142.455-.391.87-.577,1.31a9.831,9.831,0,0,0-.544,3.489,14.649,14.649,0,0,0,.115,3.108,12.727,12.727,0,0,1,.535,3.179c-.118,1.529-1.245,2.837-1.383,4.364a6.4,6.4,0,0,0,1,3.476c.424.8-.166,1.827-.391,2.7-.444,1.718.3,3.516,1.2,5.041a.242.242,0,0,0,.115.12c.1.038.2-.064.266-.151a3.416,3.416,0,0,1,3-1.11,10.031,10.031,0,0,1,3.161,1.006l1.441-3.207a2.871,2.871,0,0,0,.371-1.716,4.969,4.969,0,0,0-.546-1.152,6.726,6.726,0,0,1-.471-2.961l-.027-5.7a12.475,12.475,0,0,0,2.242-4.843,15.538,15.538,0,0,1,.133,7.547,6.848,6.848,0,0,0-.222,1.15c-.087,1.583,1.154,2.921,1.485,4.471a.962.962,0,0,1,.027.364,1.372,1.372,0,0,1-.184.422,6.5,6.5,0,0,0-.444,3.616,36.036,36.036,0,0,0,4.708.5,2.646,2.646,0,0,0,1.057-.109,2.916,2.916,0,0,0,.877-.644,19.36,19.36,0,0,1,3.3-2.5,7.685,7.685,0,0,0-2.7-2.664c.357-.526,1.172-.484,1.647-.906a1.554,1.554,0,0,0,.444-.875,5.942,5.942,0,0,0-.262-2.63,31.293,31.293,0,0,0-1.554-4.961,19.063,19.063,0,0,1-.835-2.009c-.582-1.913-.175-4-.615-5.951a4.1,4.1,0,0,1-.211-1.9c.244-.961,1.332-1.532,1.572-2.495.859-3.43,1.012-6.983,1.5-10.484a13.47,13.47,0,0,0,.175-2.022c0-.708-.127-1.41-.178-2.115-.2-2.826.7-5.645.473-8.468a10.655,10.655,0,0,0-1.669-4.883c-1.632-2.519-.493-6.084-.322-9.081a6.677,6.677,0,0,1,.7-2.886,4.735,4.735,0,0,0,.411-1.643,1.7,1.7,0,0,0-.124-1.037,1.751,1.751,0,0,0-.606-.546c-.517-.337-.08-.582-.366-1.128a4.738,4.738,0,0,1-.315-.941,1.98,1.98,0,0,0-.444-.872.839.839,0,0,0-.908-.222c-.211,0-.269-.28-.286-.491a6.917,6.917,0,0,0-.693-2.209,1.206,1.206,0,0,0-.535-.686,1.223,1.223,0,0,0-.73,0,2.359,2.359,0,0,0,.331.721,6.268,6.268,0,0,1,.755,2.184c-.222.067.222,0,0,0a1.554,1.554,0,0,1,.291.952h-6.249a.444.444,0,0,1-.222-.04.533.533,0,0,1-.18-.264,3.846,3.846,0,0,0-.577-.861l-2.2-2.71a.555.555,0,0,0-.189-.171.511.511,0,0,0-.277,0A4.992,4.992,0,0,0,295.922,314.026Z" transform="translate(-244.726 -251.188)" fill="#020887"/>
  <path id="Path_240" data-name="Path 240" d="M343.491,482.209a2.118,2.118,0,0,1,1.081.28,1.09,1.09,0,0,1,.537.937,2.483,2.483,0,0,1-.579,1.11,2.975,2.975,0,0,0-.342.7.282.282,0,0,0-.018.18c.027.084.118.127.2.164a1.667,1.667,0,0,1,.979,1.456c-.02.866-.866,1.567-.819,2.442a5.036,5.036,0,0,0,.093.542,4.137,4.137,0,0,1-.3,2.2c-.269.7-.635,1.352-.923,2.042a14.487,14.487,0,0,0-.888,5.993,11.553,11.553,0,0,1-.888,4.022,57.816,57.816,0,0,0,.2-7.991c-.031-.724-.122-1.407-.089-2.133.053-1.152.7-2.2.861-3.33a16.4,16.4,0,0,0,.047-1.956c.031-1.332.393-2.646.417-3.982A5.141,5.141,0,0,1,343.491,482.209Z" transform="translate(-284.409 -382.648)" opacity="0.1"/>
  <path id="Path_241" data-name="Path 241" d="M296.186,316.84a6.091,6.091,0,0,0-1.23.812,5.239,5.239,0,0,0-.972,1.332,17.007,17.007,0,0,0-.824,1.722,3.838,3.838,0,0,0-.357,2.406,8.285,8.285,0,0,0,1.13,1.924,16.382,16.382,0,0,1,.9,2.1c.391.939.926,1.814,1.312,2.755a4.879,4.879,0,0,1,.375,2.977c-.071.289-.539.513-.539.808,0,.488.706,1.019,1.174,1.161a1.757,1.757,0,0,0,1.569-.444,5.772,5.772,0,0,0,1.667-2.57,26.3,26.3,0,0,0,1.181-4.841c.2-1.2.4-2.408.5-3.62a9.215,9.215,0,0,0-.158-3.267,5.549,5.549,0,0,0-1.516-2.522,4.215,4.215,0,0,0-2.362-1.321A3.892,3.892,0,0,0,296.186,316.84Z" transform="translate(-246.366 -253.527)" fill="#464353"/>
  <path id="Path_242" data-name="Path 242" d="M287.376,404.135a1.061,1.061,0,0,1-.495.739,2.914,2.914,0,0,1-.846.346,3.512,3.512,0,0,1-1.827.18,3.667,3.667,0,0,1-1.283-.73l-6.721-5.145a9.074,9.074,0,0,1-1.481-1.314,9.455,9.455,0,0,1-.7-1,4.883,4.883,0,0,1-.653-1.3,2.372,2.372,0,0,1-.08-.624,1.174,1.174,0,0,1,.142-.57c.162-.271.508-.326.792-.4a8.315,8.315,0,0,1,2.923-.222.4.4,0,0,1,.4.269c.149.273.277.557.411.841a6.081,6.081,0,0,0,.792,1.356,11.443,11.443,0,0,0,.988.952c.71.666,1.292,1.465,2.049,2.078a17.109,17.109,0,0,0,2.941,1.654,5.431,5.431,0,0,1,2.486,2.209,1.294,1.294,0,0,1,.167.677Z" transform="translate(-231.246 -314.064)" fill="#fbbebe"/>
  <path id="Path_243" data-name="Path 243" d="M333.271,258.477a5.5,5.5,0,1,1-.153-1.287A5.5,5.5,0,0,1,333.271,258.477Z" transform="translate(-269.36 -204.302)" opacity="0.1"/>
  <path id="Path_244" data-name="Path 244" d="M333.271,257.477a5.5,5.5,0,1,1-.153-1.287A5.5,5.5,0,0,1,333.271,257.477Z" transform="translate(-269.36 -203.524)" fill="#fbbebe"/>
  <path id="Path_245" data-name="Path 245" d="M277.953,395.2a1.3,1.3,0,0,1-.941.038,5.887,5.887,0,0,0-3.722.056,1.174,1.174,0,0,1,.142-.57c.162-.271.508-.326.792-.4a8.316,8.316,0,0,1,2.923-.222.4.4,0,0,1,.4.269C277.692,394.633,277.82,394.917,277.953,395.2Z" transform="translate(-231.246 -314.064)" opacity="0.1"/>
  <path id="Path_246" data-name="Path 246" d="M274.708,345.217a8.662,8.662,0,0,1-1.032,2.553,1.887,1.887,0,0,0-.391.684,2.13,2.13,0,0,1-.091.55c-.075.151-.235.251-.3.406-.1.222.029.508-.1.717a1.065,1.065,0,0,1-.211.222,1.554,1.554,0,0,0-.384,1.139,3.876,3.876,0,0,1-.1,1.223,5.5,5.5,0,0,1,4-.193c.371.082.83.144,1.07-.153s.1-.688.135-1.045a4.153,4.153,0,0,1,.562-1.276,15.193,15.193,0,0,0,.468-1.507,25.111,25.111,0,0,1,1.6-2.886,2.773,2.773,0,0,0,.315-1.1,3.271,3.271,0,0,0-.38-1.423,19.461,19.461,0,0,0-1.643-2.932c-.282-.415-.768-1.183-1.205-.519a12.446,12.446,0,0,0-.839,1.8A32.989,32.989,0,0,0,274.708,345.217Z" transform="translate(-230.32 -271.553)" fill="#464353"/>
  <path id="Path_247" data-name="Path 247" d="M330.129,271.282a4.486,4.486,0,0,1-3.592-1.418.55.55,0,0,1-.16-.26.521.521,0,0,1,.1-.364c.266-.411.726-.681.939-1.123a3.566,3.566,0,0,0,.16-1.434c.036-.868.377-1.727.406-2.582a2.7,2.7,0,0,0-.049-.653,4.089,4.089,0,0,1-.186-.983c.029-.65.615-1.156.713-1.8.127-.817-.551-1.527-1.232-2a7.338,7.338,0,0,0-1.678-.868,5.463,5.463,0,0,0-1.128-.273,4.4,4.4,0,0,0-2.124.238,3.469,3.469,0,0,0-.79.422,1.07,1.07,0,0,0-.353.366,1.192,1.192,0,0,0-.093.53,5.656,5.656,0,0,1-.344,2.664c-.222.424-.6.768-.784,1.216a2.022,2.022,0,0,0-.14.584,5.884,5.884,0,0,0-.033.626,6.529,6.529,0,0,0,.595,3.418,8.907,8.907,0,0,1,.57.957,1.09,1.09,0,0,1-.055,1.063,1.21,1.21,0,0,1-.444.333,3.552,3.552,0,0,1-2.839.1,3.6,3.6,0,0,0,.839-4.013,2.369,2.369,0,0,1-.306-.888,2.253,2.253,0,0,1,.222-.812,4.44,4.44,0,0,0,.135-2.6,9.488,9.488,0,0,1-.413-1.583,4.786,4.786,0,0,1,.053-1.23,4,4,0,0,1,2.737-3.15c.113-.038.222-.073.346-.1a7.384,7.384,0,0,1,1.64-.175,12.453,12.453,0,0,1,3.669.246,4.924,4.924,0,0,1,1.9.977,3.43,3.43,0,0,1,.919,1.214,4.219,4.219,0,0,1,.26.839c.051.237.089.477.127.717a16.106,16.106,0,0,1,.251,5.152c-.113.666-.311,1.332-.4,2.011A12.154,12.154,0,0,0,330.129,271.282Z" transform="translate(-265.713 -206.235)" fill="#464353"/>
  <circle id="Ellipse_45" data-name="Ellipse 45" cx="0.413" cy="0.413" r="0.413" transform="translate(56.117 66.414)" fill="#fff"/>
  <circle id="Ellipse_46" data-name="Ellipse 46" cx="0.413" cy="0.413" r="0.413" transform="translate(63.084 66.219)" fill="#fff"/>
  <path id="Path_248" data-name="Path 248" d="M335.438,233.846l-.888-1.676a1.622,1.622,0,0,1,.184-.186.7.7,0,0,1,.428-.1Z" transform="translate(-278.908 -187.884)" opacity="0.1"/>
  <path id="Path_249" data-name="Path 249" d="M344.048,230.518,343.043,232l-.573-1.632a1.816,1.816,0,0,1,.775-.146A2.575,2.575,0,0,1,344.048,230.518Z" transform="translate(-285.07 -186.598)" opacity="0.1"/>
  <g id="Group_710" data-name="Group 710" transform="translate(51.877 50.808)" opacity="0.1">
    <path id="Path_250" data-name="Path 250" d="M320.873,316.084a1.21,1.21,0,0,1-.444.333,3.567,3.567,0,0,1-2.524.211,3.463,3.463,0,0,1-.315.335,3.551,3.551,0,0,0,2.839-.1,1.21,1.21,0,0,0,.444-.333.957.957,0,0,0,.142-.768A.789.789,0,0,1,320.873,316.084Z" transform="translate(-317.59 -303.954)"/>
    <path id="Path_251" data-name="Path 251" d="M320.023,275.9a4.373,4.373,0,0,1,.126.888,4.423,4.423,0,0,0-.126-1.332,9.494,9.494,0,0,1-.413-1.583,1.332,1.332,0,0,0-.011-.209,4.949,4.949,0,0,0,.011.653A9.494,9.494,0,0,0,320.023,275.9Z" transform="translate(-319.149 -271.199)"/>
    <path id="Path_252" data-name="Path 252" d="M371.7,290.586a9.71,9.71,0,0,0,.12-1.776,9.257,9.257,0,0,1-.12,1.332c-.113.666-.311,1.332-.4,2.011a7.011,7.011,0,0,0-.051,1.1,6.547,6.547,0,0,1,.051-.655C371.387,291.918,371.585,291.258,371.7,290.586Z" transform="translate(-359.334 -282.986)"/>
    <path id="Path_253" data-name="Path 253" d="M320.256,298.7a3.648,3.648,0,0,1-.28-.686,1,1,0,0,0-.027.244,2.369,2.369,0,0,0,.306.888,3.353,3.353,0,0,1,.277,1.176A3.441,3.441,0,0,0,320.256,298.7Z" transform="translate(-319.426 -290.144)"/>
    <path id="Path_254" data-name="Path 254" d="M363.523,287.383a2.891,2.891,0,0,1,.042.306v-.1a2.7,2.7,0,0,0-.049-.653c-.049-.233-.129-.464-.167-.7a.985.985,0,0,0-.02.16A4.093,4.093,0,0,0,363.523,287.383Z" transform="translate(-353.177 -280.986)"/>
    <path id="Path_255" data-name="Path 255" d="M357.327,317.893a1.164,1.164,0,0,1-.1-.113.459.459,0,0,0-.064.3.55.55,0,0,0,.16.26,4.486,4.486,0,0,0,3.591,1.418c-.038-.146-.075-.291-.111-.444A4.479,4.479,0,0,1,357.327,317.893Z" transform="translate(-348.38 -305.525)"/>
    <path id="Path_256" data-name="Path 256" d="M340.612,265.774a.1.1,0,0,1,0-.024c.127-.817-.55-1.527-1.232-2a7.341,7.341,0,0,0-1.678-.868,5.462,5.462,0,0,0-1.128-.273,4.4,4.4,0,0,0-2.124.237,3.47,3.47,0,0,0-.79.422,1.07,1.07,0,0,0-.353.366,1.192,1.192,0,0,0-.093.531c0,.153,0,.306,0,.462v-.018a1.192,1.192,0,0,1,.093-.531,1.07,1.07,0,0,1,.353-.366,3.469,3.469,0,0,1,.79-.422,4.395,4.395,0,0,1,2.124-.238,5.464,5.464,0,0,1,1.128.273,7.341,7.341,0,0,1,1.678.868A2.651,2.651,0,0,1,340.612,265.774Z" transform="translate(-329.744 -262.572)"/>
    <path id="Path_257" data-name="Path 257" d="M328.337,275.659c-.222.424-.6.768-.784,1.216a2.022,2.022,0,0,0-.14.584,5.875,5.875,0,0,0-.033.626v.444a5.888,5.888,0,0,1,.033-.627,2.022,2.022,0,0,1,.14-.583,13.973,13.973,0,0,1,.784-1.216,4.457,4.457,0,0,0,.344-2.193A3.7,3.7,0,0,1,328.337,275.659Z" transform="translate(-325.207 -271.393)"/>
  </g>
  <path id="Path_258" data-name="Path 258" d="M331.382,256.077a.646.646,0,0,1-.107.118,1.017,1.017,0,0,1-.26.155c-.646.28-.619-.633-.957-.946a1.148,1.148,0,0,0-.75-.222q-.974-.049-1.951-.087c-1.085-.04-2.169-.06-3.252-.036q-.779.013-1.554.064a4.231,4.231,0,0,0-1.754.4,1.857,1.857,0,0,0-.468.366c-.122.133-.251.3-.42.333a4,4,0,0,1,2.737-3.15,5.494,5.494,0,0,1,7.547.943,3.429,3.429,0,0,1,.919,1.214A4.217,4.217,0,0,1,331.382,256.077Z" transform="translate(-267.518 -203.53)" opacity="0.1"/>
  <path id="Path_259" data-name="Path 259" d="M330.216,238.959c-.646.28-.619-.633-.957-.946a1.148,1.148,0,0,0-.75-.222,59.159,59.159,0,0,0-6.757-.058,3.189,3.189,0,0,0-2.22.768c-.138.151-.282.346-.488.34-.069-.444-.118-.906-.151-1.361a1.514,1.514,0,0,1,.027-.511c.055-.191.182-.353.246-.539a2.162,2.162,0,0,0,.067-.728,5.261,5.261,0,0,1,2.588-4.475,2.352,2.352,0,0,0,.539-.364,1.623,1.623,0,0,1,.184-.186.7.7,0,0,1,.428-.1h.315a2.865,2.865,0,0,0,.832-.222,1.816,1.816,0,0,1,.775-.146,2.575,2.575,0,0,1,.8.291,1.946,1.946,0,0,0,.375.135c.2.047.411.044.613.084a2.99,2.99,0,0,1,.919.408,4.383,4.383,0,0,1,.923.666,4.086,4.086,0,0,1,.715,1.163,8.33,8.33,0,0,1,.666,1.847,10.159,10.159,0,0,0,.517,2.748C330.687,238.073,330.924,238.655,330.216,238.959Z" transform="translate(-266.719 -186.583)" fill="#fed253"/>
  <path id="Path_260" data-name="Path 260" d="M319.25,259.168s4.6-4.186,11.454-.715C330.7,258.453,322.968,256.693,319.25,259.168Z" transform="translate(-267.004 -207.488)" opacity="0.1"/>
  <path id="Path_261" data-name="Path 261" d="M88.337,288.428c-.626-1.025-1.567-1.964-1.421-3.128a9.147,9.147,0,0,0,4.934-.952,40.778,40.778,0,0,0,4.522-2.608c.582-.366,1.161-.726,1.738-1.059.915-.524,1.822-1.11,2.752-1.623a10.388,10.388,0,0,1,4.186-1.447,7.646,7.646,0,0,1,.815-.02c1.842.036,3.751.531,5.372-.3l.1-.053a14.339,14.339,0,0,0,2.375-2.055,10.611,10.611,0,0,1,1.84-1.279c1.2-.666,2.493-1.2,3.716-1.827a5.636,5.636,0,0,0,.888-.568l.209-.166.047-.04c.051-.042.1-.084.151-.129l.1-.084.1-.089.075-.071.122-.115.013-.016.193-.191.078-.078.135-.14.08-.08c.135-.14.271-.282.408-.42s.324-.324.491-.477h0l.16-.142.047-.04.129-.107.06-.051.127-.1.062-.049c.062-.047.127-.091.191-.135a1.4,1.4,0,0,1,.186-.109l-.415-1.006,1.194-.493,16.47,39.966-1.2.493-9.421-22.863-.067.067a18.912,18.912,0,0,1-7.789,4.635h-.018a18.358,18.358,0,0,0-4.857,1.765,4.66,4.66,0,0,0-1.254,1.2c-.324.462-.55.988-.888,1.432-.064.082-.135.162-.206.238a7.72,7.72,0,0,1-1.332,1.057l-.211.144a43.17,43.17,0,0,1-4.462,2.75,17.605,17.605,0,0,1-2.772,1.154c-.695.222-1.412.384-2.107.6a8.249,8.249,0,0,0-1.356.546,9.924,9.924,0,0,0-2.934,2.606c-.748.9-1.458,1.856-2.28,2.677-.515.511-1.3.994-1.92.695l-.127-.073c.02-.033.036-.067.053-.1a2.944,2.944,0,0,0-.926-3.121c-.084-.087-.171-.171-.26-.251s-.249-.222-.375-.333a9.038,9.038,0,0,1-1.916-1.922,6.27,6.27,0,0,1-.737-2.089,8.875,8.875,0,0,0-.939-3.012c-.373-.588-.928-1.09-1.332-1.654a2.519,2.519,0,0,1-.488-1.141,7.4,7.4,0,0,1,.371-2.146,2.68,2.68,0,0,0,.047-.595A3.15,3.15,0,0,0,88.337,288.428Z" transform="translate(-86.231 -215.357)" fill="url(#linear-gradient-2)"/>
  <rect id="Rectangle_35" data-name="Rectangle 35" width="1.272" height="42.501" transform="translate(53.891 91.464) rotate(157.6)" fill="#d6d8e1"/>
  <path id="Path_262" data-name="Path 262" d="M92.275,301.351a8.7,8.7,0,0,1,.921,2.961,6.237,6.237,0,0,0,.726,2.055,8.932,8.932,0,0,0,1.882,1.889c.124.109.249.222.368.329.087.078.173.162.255.244a2.9,2.9,0,0,1,.91,3.07.845.845,0,0,1-.051.1,1.014,1.014,0,0,0,.122.071c.613.3,1.383-.178,1.889-.681.808-.808,1.507-1.745,2.242-2.63a9.719,9.719,0,0,1,2.886-2.564,8,8,0,0,1,1.332-.537c.681-.222,1.387-.38,2.071-.593a17.428,17.428,0,0,0,2.726-1.134,42.736,42.736,0,0,0,4.4-2.706l.209-.142a7.626,7.626,0,0,0,1.31-1.037c.071-.076.14-.153.2-.235.342-.444.566-.952.888-1.407a4.586,4.586,0,0,1,1.234-1.181,18.032,18.032,0,0,1,4.775-1.736h.018a18.632,18.632,0,0,0,7.658-4.557,1.248,1.248,0,0,0,.384-.564,1.3,1.3,0,0,0-.262-.9c-.189-.324-.373-.648-.555-.977a43.618,43.618,0,0,1-2.189-4.6c-.14-.346-.275-.69-.406-1.039q-.5-1.332-.919-2.7c-.091-.3-.18-.606-.264-.91-.016-.058-.033-.12-.049-.186-.368-1.481-.861-4.946-2.38-3.909a8.783,8.783,0,0,0-1.254,1.09c-.3.3-.584.608-.888.906a8.976,8.976,0,0,1-.784.686,5.755,5.755,0,0,1-.888.559c-1.205.617-2.479,1.134-3.654,1.8a10.386,10.386,0,0,0-1.811,1.256,14.059,14.059,0,0,1-2.335,2.022l-.1.053c-1.594.81-3.469.324-5.283.289a7.979,7.979,0,0,0-.8.02,10.116,10.116,0,0,0-4.118,1.423c-.915.506-1.807,1.079-2.706,1.6-.568.326-1.136.679-1.709,1.041a39.1,39.1,0,0,1-4.439,2.566,9.123,9.123,0,0,1-4.852.935c-.144,1.143.779,2.067,1.4,3.074a3.052,3.052,0,0,1,.522,1.458,2.577,2.577,0,0,1-.042.584,7.625,7.625,0,0,0-.364,2.113,2.453,2.453,0,0,0,.477,1.117C91.362,300.279,91.906,300.774,92.275,301.351Z" transform="translate(-87.842 -221.396)" fill="#f86d70"/>
  <path id="Path_263" data-name="Path 263" d="M306.95,414.71a19.347,19.347,0,0,0,3.916,2.6c1.971.9.666,4.144.666,4.144a3.574,3.574,0,0,1-3.552-1.554C306.517,417.866,306.95,414.71,306.95,414.71Z" transform="translate(-257.388 -330.132)" fill="#fbbebe"/>
  <path id="Path_264" data-name="Path 264" d="M727.009,544.623s-5.15,6.777-9.423,6.832-6.781,2.855-4.752,4.6,24.137-1,24.137-1,.209-8.328-1.707-9.545S727.009,544.623,727.009,544.623Z" transform="translate(-572.667 -431.177)" fill="#444176"/>
  <path id="Path_265" data-name="Path 265" d="M1021.039,575.668s.788,5.367-1.647,9.028,4.4,5.072,4.4,5.072,4.966,1.383,5.327-3.523.244-8.657-.222-9.057-.855-3.159-.855-3.159Z" transform="translate(-811.326 -454.087)" fill="#444176"/>
  <path id="Path_266" data-name="Path 266" d="M677.45,426.442s-.18-17.36,17-24.417l3.989-7.589,1.913-4.661a11.343,11.343,0,0,1,8.011-6.761l3.094-.695.957-4.031a11.338,11.338,0,0,1,9.059-8.555,31.726,31.726,0,0,1,5.7-.533,4.91,4.91,0,0,1,4.171,2.442h0s16.275-.18,17,8.681c0,0,1.629,8.135,3.98,9.583,0,0,3.978-.9,7.956,4.883l4.339,14.828s11.392,10.668,7.956,20.421c0,0-4.7,6.69-28.57,2.169,0,0-25.5,7.769-39.067-2.886C704.934,429.334,682.333,433.674,677.45,426.442Z" transform="translate(-545.694 -294.724)" fill="#a8a8a8"/>
  <path id="Path_267" data-name="Path 267" d="M728.77,540.862s3.618-5.063,3.436-8.681.852-12.43.852-12.43" transform="translate(-585.622 -411.856)" fill="none" stroke="#000" stroke-miterlimit="10" stroke-width="1" opacity="0.1"/>
  <path id="Path_268" data-name="Path 268" d="M788.24,495.337s3.616-6.69,3.254-10.306c0,0,3.8-6.881,6.69-6.331" transform="translate(-631.892 -379.894)" fill="none" stroke="#000" stroke-miterlimit="10" stroke-width="1" opacity="0.1"/>
  <path id="Path_269" data-name="Path 269" d="M877.85,445.408s9.944-3.616,10.488-6.508" transform="translate(-701.611 -348.952)" fill="none" stroke="#000" stroke-miterlimit="10" stroke-width="1" opacity="0.1"/>
  <path id="Path_270" data-name="Path 270" d="M894.14,484.779s10.488-4.7,10.488-5.969h5.241s7.6,9.947,6.692,14.286" transform="translate(-714.285 -380.004)" fill="none" stroke="#000" stroke-miterlimit="10" stroke-width="1" opacity="0.1"/>
  <path id="Path_271" data-name="Path 271" d="M834.174,538s-10.126-.724-13.745,2.171-10.126,4.339-10.126,4.339-3.8,8.138-5.245,9.583-3.8,6.51-3.8,6.51" transform="translate(-642.022 -425.991)" fill="none" stroke="#000" stroke-miterlimit="10" stroke-width="1" opacity="0.1"/>
  <path id="Path_272" data-name="Path 272" d="M949.54,581.46a26.445,26.445,0,0,0,2.53,5.967c1.447,2.171,3.616,9.944,3.616,9.944" transform="translate(-757.388 -459.868)" fill="none" stroke="#000" stroke-miterlimit="10" stroke-width="1" opacity="0.1"/>
  <path id="Path_273" data-name="Path 273" d="M1026.11,631.15s2.3,6.386,4.313,6.448" transform="translate(-816.961 -498.528)" fill="none" stroke="#000" stroke-miterlimit="10" stroke-width="1" opacity="0.1"/>
  <path id="Path_274" data-name="Path 274" d="M958.38,507.66s5.962,1.612,8.455,5.516,10.106,7.445,10.106,7.445" transform="translate(-764.265 -402.45)" fill="none" stroke="#000" stroke-miterlimit="10" stroke-width="1" opacity="0.1"/>
  <path id="Path_275" data-name="Path 275" d="M969.9,421s0,8.317,2.351,8.317a66.635,66.635,0,0,1,7.6.9" transform="translate(-773.228 -335.026)" fill="none" stroke="#000" stroke-miterlimit="10" stroke-width="1" opacity="0.1"/>
  <path id="Path_276" data-name="Path 276" d="M905.116,376.5s-.6,14.368-3.676,18.089" transform="translate(-719.964 -300.404)" fill="none" stroke="#000" stroke-miterlimit="10" stroke-width="1" opacity="0.1"/>
  <g id="Group_711" data-name="Group 711" transform="translate(143.316 74.303)" opacity="0.05">
    <path id="Path_277" data-name="Path 277" d="M929,408.837l-4.34-14.828c-3.978-5.787-7.955-4.883-7.955-4.883-2.351-1.447-3.978-9.585-3.978-9.585-.724-8.861-17-8.679-17-8.679h0a4.91,4.91,0,0,0-4.18-2.442c-.768,0-1.554.024-2.34.089q.666.067,1.276.189l1.265,2.171s16.273-.182,17,8.679c0,0,1.629,8.138,3.98,9.585,0,0,3.978-.906,7.955,4.883l4.34,14.828s11.392,10.668,7.956,20.421c0,0-2.32,3.3-11.969,3.7,13.01.477,15.946-3.7,15.946-3.7C940.392,419.5,929,408.837,929,408.837Z" transform="translate(-853.765 -368.42)"/>
    <path id="Path_278" data-name="Path 278" d="M741.115,639.29a84.444,84.444,0,0,1-11.585,1.268,73.872,73.872,0,0,0,12.279-.735C741.574,639.643,741.343,639.47,741.115,639.29Z" transform="translate(-729.53 -579.164)"/>
    <path id="Path_279" data-name="Path 279" d="M897.834,652.33a74.268,74.268,0,0,1-17.074,2.7,72.411,72.411,0,0,0,19.485-2.271C899.459,652.627,898.662,652.479,897.834,652.33Z" transform="translate(-847.191 -589.31)"/>
  </g>
  <path id="Path_280" data-name="Path 280" d="M306.73,769.969s4.974-.153,6.473-1.221,7.649-2.342,8.022-.63,7.474,8.513,1.858,8.559-13.045-.875-14.541-1.787S306.73,769.969,306.73,769.969Z" transform="translate(-257.264 -604.442)" fill="#a8a8a8"/>
  <path id="Path_281" data-name="Path 281" d="M323.185,785.509c-5.616.047-13.048-.875-14.544-1.776-1.139-.695-1.594-3.185-1.745-4.333h-.166s.315,4.011,1.811,4.921,8.928,1.831,14.541,1.787c1.623-.013,2.182-.59,2.151-1.445C325.009,785.178,324.39,785.5,323.185,785.509Z" transform="translate(-257.264 -613.871)" opacity="0.2"/>
  <path id="Path_282" data-name="Path 282" d="M772.474,703.023s-5.858-1.172-7.418-2.735-8.59-4.293-9.372-2.342-10.542,8.59-3.9,9.767,15.618,1.554,17.571.781S772.474,703.023,772.474,703.023Z" transform="translate(-601.735 -549.971)" fill="#a8a8a8"/>
  <path id="Path_283" data-name="Path 283" d="M751.784,726.972c6.639,1.17,15.618,1.554,17.571.779,1.485-.595,2.519-3.452,2.928-4.781l.2.042s-1.172,4.684-3.123,5.465-10.932.391-17.571-.781c-1.916-.337-2.464-1.132-2.258-2.135C749.691,726.222,750.359,726.726,751.784,726.972Z" transform="translate(-601.74 -569.967)" opacity="0.2"/>
  <path id="Path_284" data-name="Path 284" d="M550.532,141.683h-1.394a.977.977,0,1,0,0-1.953H537.844a.977.977,0,1,0,0,1.953h1.394a.977.977,0,0,0,0,1.951h-1.951a.977.977,0,1,0,0,1.953h11.294a.977.977,0,1,0,0-1.953h1.951a.977.977,0,1,0,0-1.951Z" transform="translate(-435.883 -116.19)" fill="#020887" opacity="0.1"/>
  <path id="Path_285" data-name="Path 285" d="M748.113,296.5h-1.394a.977.977,0,0,0,0-1.951h-11.3a.977.977,0,1,0,0,1.951h1.394a.977.977,0,0,0,0,1.951h-1.951a.977.977,0,1,0,0,1.953h11.292a.977.977,0,0,0,0-1.953h1.964a.977.977,0,1,0,0-1.951Z" transform="translate(-589.598 -236.64)" fill="#020887" opacity="0.1"/>
  <path id="Path_286" data-name="Path 286" d="M455.306,267.857h-1.394a.977.977,0,1,0,0-1.951h-11.3a.977.977,0,1,0,0,1.951h1.394a.977.977,0,1,0,0,1.951h-1.953a.977.977,0,1,0,0,1.953h11.294a.977.977,0,1,0,0-1.953H455.3a.977.977,0,1,0,0-1.951Z" transform="translate(-361.792 -214.357)" fill="#020887" opacity="0.1"/>
</svg>
