<svg id="no_demo" xmlns="http://www.w3.org/2000/svg" width="189.243" height="164.741" viewBox="0 0 189.243 164.741">
  <path id="Path_78" data-name="Path 78" d="M189.243,735.609,53.774,737.652,0,728.121H83.948Z" transform="translate(0 -572.91)" fill="#e6e6e6"/>
  <circle id="Ellipse_20" data-name="Ellipse 20" cx="21.67" cy="21.67" r="21.67" transform="translate(134.329 0)" fill="#ff6584"/>
  <path id="Path_79" data-name="Path 79" d="M335.954,775.122s.317-6.642,6.815-5.87" transform="translate(-297.618 -618.779)" fill="#3f3d56"/>
  <circle id="Ellipse_21" data-name="Ellipse 21" cx="3.252" cy="3.252" r="3.252" transform="translate(33.247 143.518)" fill="#020887"/>
  <rect id="Rectangle_27" data-name="Rectangle 27" width="0.918" height="6.426" transform="translate(35.971 152.247)" fill="#3f3d56"/>
  <path id="Path_80" data-name="Path 80" d="M838.4,780.444s.317-6.642,6.815-5.87" transform="translate(-692.96 -622.966)" fill="#3f3d56"/>
  <circle id="Ellipse_22" data-name="Ellipse 22" cx="3.252" cy="3.252" r="3.252" transform="translate(140.352 144.653)" fill="#020887"/>
  <rect id="Rectangle_28" data-name="Rectangle 28" width="0.918" height="6.426" transform="translate(143.075 153.382)" fill="#3f3d56"/>
  <path id="Path_81" data-name="Path 81" d="M911.851,785.767s.317-6.642,6.815-5.87" transform="translate(-750.753 -627.155)" fill="#3f3d56"/>
  <circle id="Ellipse_23" data-name="Ellipse 23" cx="3.252" cy="3.252" r="3.252" transform="translate(156.009 145.787)" fill="#020887"/>
  <rect id="Rectangle_29" data-name="Rectangle 29" width="0.918" height="6.426" transform="translate(158.732 154.516)" fill="#3f3d56"/>
  <path id="Path_82" data-name="Path 82" d="M456.243,760.219s.317-6.642,6.815-5.87" transform="translate(-392.266 -607.052)" fill="#3f3d56"/>
  <circle id="Ellipse_24" data-name="Ellipse 24" cx="3.252" cy="3.252" r="3.252" transform="translate(58.889 140.341)" fill="#020887"/>
  <rect id="Rectangle_30" data-name="Rectangle 30" width="0.918" height="6.426" transform="translate(61.612 149.07)" fill="#3f3d56"/>
  <path id="Path_83" data-name="Path 83" d="M229.5,765.542s.317-6.642,6.815-5.87" transform="translate(-213.86 -611.24)" fill="#3f3d56"/>
  <circle id="Ellipse_25" data-name="Ellipse 25" cx="3.252" cy="3.252" r="3.252" transform="translate(10.556 141.476)" fill="#020887"/>
  <rect id="Rectangle_31" data-name="Rectangle 31" width="0.918" height="6.426" transform="translate(13.279 150.205)" fill="#3f3d56"/>
  <circle id="Ellipse_26" data-name="Ellipse 26" cx="35.434" cy="35.434" r="35.434" transform="translate(58.844 71.891)" fill="#3f3d56"/>
  <path id="Path_84" data-name="Path 84" d="M481.833,514.116a9.377,9.377,0,0,1,14.393,0,10.422,10.422,0,1,0-14.393,0Z" transform="translate(-409.863 -403.946)" fill="#fff"/>
  <path id="Path_85" data-name="Path 85" d="M613.838,514.116a9.377,9.377,0,0,1,14.393,0,10.422,10.422,0,1,0-14.393,0Z" transform="translate(-513.729 -403.946)" fill="#fff"/>
  <circle id="Ellipse_27" data-name="Ellipse 27" cx="3.585" cy="3.585" r="3.585" transform="translate(72.027 95.498)" fill="#3f3d56"/>
  <circle id="Ellipse_28" data-name="Ellipse 28" cx="3.585" cy="3.585" r="3.585" transform="translate(100.164 95.498)" fill="#3f3d56"/>
  <circle id="Ellipse_29" data-name="Ellipse 29" cx="4.169" cy="4.169" r="4.169" transform="translate(64.576 112.015)" fill="#ff6584"/>
  <circle id="Ellipse_30" data-name="Ellipse 30" cx="4.169" cy="4.169" r="4.169" transform="translate(112.517 112.015)" fill="#ff6584"/>
  <path id="Path_86" data-name="Path 86" d="M423.4,505.926l-3.126,13.548,5.211-5.211Z" transform="translate(-330.687 -398.08)" fill="#ff6584"/>
  <path id="Path_87" data-name="Path 87" d="M468.019,673.384l-3.55-2.979.083,2.979h-1.1l-.088-3.15-4.793,3.15h-2.006l6.763-4.445-.262-9.334-.2-7.05,1.1-.03.2,7.08.262,9.326,5.305,4.454Z" transform="translate(-359.239 -513.428)" fill="#3f3d56"/>
  <path id="Path_88" data-name="Path 88" d="M389.8,673.384l-3.55-2.979.083,2.979h-1.1l-.088-3.15-4.793,3.15h-2.006l6.76-4.445-.262-9.334-.2-7.05,1.1-.03.2,7.08.259,9.326,5.305,4.454Z" transform="translate(-297.695 -513.428)" fill="#3f3d56"/>
  <path id="Path_89" data-name="Path 89" d="M558.519,373.229a2.917,2.917,0,0,0-2.4,1.915c-.505-1.744-1.567-2.957-2.807-2.957a1.889,1.889,0,0,0-.25.042c-.477-1.862-1.585-3.169-2.876-3.169-1.727,0-3.127,2.333-3.127,5.211s1.4,5.211,3.127,5.211a1.878,1.878,0,0,0,.25-.042c.477,1.862,1.585,3.169,2.876,3.169a2.918,2.918,0,0,0,2.4-1.915c.505,1.744,1.567,2.957,2.807,2.957,1.727,0,3.127-2.333,3.127-5.211S560.246,373.229,558.519,373.229Z" transform="translate(-463.72 -303.943)" fill="#3f3d56"/>
  <path id="Path_90" data-name="Path 90" d="M0,0H0A10.422,10.422,0,0,1,10.422,10.422v5.211A10.422,10.422,0,0,1,0,26.055H0Z" transform="translate(61.019 120.753) rotate(180)" fill="#020887"/>
  <path id="Path_91" data-name="Path 91" d="M598.3,444.248h0a10.422,10.422,0,0,1,10.422,10.422v5.211A10.422,10.422,0,0,1,598.3,470.3h0V444.248Z" transform="translate(-470.765 -349.549)" fill="#020887"/>
  <path id="Path_92" data-name="Path 92" d="M487.066,414.079h-1.654a38.032,38.032,0,0,0-76.064,0H407.7a39.685,39.685,0,0,1,79.371,0Z" transform="translate(-354.066 -308.14)" fill="#020887"/>
  <path id="Path_93" data-name="Path 93" d="M131.69,368Z" transform="translate(-103.618 -289.553)" fill="#3f3d56"/>
  <path id="Path_94" data-name="Path 94" d="M302.2,402.914h0l-.777-.323-3.278-1.386-1.175-.5-.09.228h0L295.3,404.92l4.442,1.88.023.021-.3.706a1.25,1.25,0,0,0-.1.2.98.98,0,0,0,.561,1.2c.374.148.848-.161,1.058-.69a1.114,1.114,0,0,0-.36-1.346h0l-.777-.323-2.658-1.033,1.518-3.834-.225-.089-1.519,3.835-.329-.128,1.525-3.85.04.017,3.124,1.322.023.021-.3.706a1.252,1.252,0,0,0-.1.2.98.98,0,0,0,.561,1.2c.374.148.848-.161,1.057-.69A1.114,1.114,0,0,0,302.2,402.914Z" transform="translate(-265.633 -328.844)" fill="#3f3d56"/>
  <path id="Path_95" data-name="Path 95" d="M370.456,436.245a3,3,0,0,1-1.29-2.945c-.041-1.314-1.126-1.128-1.126-1.128l-.4.09a1.2,1.2,0,0,0-.588-.109l-.6.1a1.427,1.427,0,0,1,1.256,1.467l.192,1.339-3.587-1.447.412-.971a1.735,1.735,0,0,0,.145-.283,1.36,1.36,0,0,0-.779-1.673c-.52-.206-1.178.223-1.469.958a1.547,1.547,0,0,0,.5,1.869h0l1.079.449.008-.025Zm-1.821-2.353.115,1.282a2.955,2.955,0,0,1-.538-1.963,1.241,1.241,0,0,0-.24-.687,1.456,1.456,0,0,1,.664,1.369Z" transform="translate(-318.515 -352.393)" fill="#3f3d56"/>
  <path id="Path_96" data-name="Path 96" d="M244.162,351.657h0l-1.079-.449-4.509-1.753,1.138-1.013a1.438,1.438,0,0,1,1.965-.322l-.353-.525s-.664-.879-1.593.051a3,3,0,0,1-2.956,1.263l6.169,2.611.032.029-.416.98a1.733,1.733,0,0,0-.145.283,1.361,1.361,0,0,0,.779,1.673c.52.206,1.178-.223,1.469-.958A1.547,1.547,0,0,0,244.162,351.657Z" transform="translate(-219.58 -286.757)" fill="#3f3d56"/>
  <path id="Path_97" data-name="Path 97" d="M325.989,309.783l-.416.98a1.734,1.734,0,0,0-.145.283,1.36,1.36,0,0,0,.779,1.673c.52.206,1.178-.223,1.469-.958a1.547,1.547,0,0,0-.5-1.869h0l-1.079-.449-3.691-1.435,2.109-5.325-.313-.124-2.11,5.327-.456-.177,2.118-5.348.056.024,4.339,1.836.032.029-.416.98a1.734,1.734,0,0,0-.145.283,1.36,1.36,0,0,0,.779,1.673c.52.206,1.178-.223,1.469-.958a1.547,1.547,0,0,0-.5-1.869h0l-1.079-.449-4.409-1.864h0l-.143-.06-1.632-.69-2.317,5.851,6.169,2.611ZM321.98,301.608Z" transform="translate(-284.898 -250.621)" fill="#3f3d56"/>
  <path id="Path_98" data-name="Path 98" d="M210.222,172.353v0l-1.857-.773L200.6,168.56l1.959-1.743a2.475,2.475,0,0,1,3.382-.554l-.608-.9s-1.143-1.513-2.743.088c0,0-1.98,2.918-5.089,2.175l10.62,4.495.056.051-.716,1.687a2.987,2.987,0,0,0-.25.487,2.342,2.342,0,0,0,1.341,2.879c.9.354,2.027-.384,2.528-1.65C211.578,174.322,211.095,172.736,210.222,172.353Z" transform="translate(-188.681 -143.155)" fill="#3f3d56"/>
  <path id="Path_99" data-name="Path 99" d="M213.795,269.962c-3.855-2.2-3.084-7.041-3.084-7.041-.1-3.142-2.693-2.7-2.693-2.7l-.945.216a2.87,2.87,0,0,0-1.4-.26l-1.437.242c3.273.769,3,3.507,3,3.507l.458,3.2-8.575-3.459.985-2.322a4.147,4.147,0,0,0,.347-.676,3.253,3.253,0,0,0-1.862-4c-1.243-.492-2.815.534-3.512,2.292-.687,1.734-.016,3.937,1.2,4.469v0l2.58,1.074.019-.061Zm-4.355-5.625.276,3.075a7.044,7.044,0,0,1-1.288-4.7,2.969,2.969,0,0,0-.574-1.644A3.481,3.481,0,0,1,209.44,264.337Z" transform="translate(-186.553 -215.416)" fill="#3f3d56"/>
</svg>
