<svg xmlns="http://www.w3.org/2000/svg" width="157.436" height="153.676" viewBox="0 0 157.436 153.676">
  <g id="no_result" transform="translate(-0.001 -0.004)" opacity="0.92">
    <path id="Path_41" data-name="Path 41" d="M405.758,189.82H363.336a3.651,3.651,0,0,0-3.646,3.646V287.75l-.486.148L348.8,291.085a1.946,1.946,0,0,1-2.428-1.291L315.412,188.68a1.946,1.946,0,0,1,1.291-2.428l16.037-4.91,46.492-14.231,16.037-4.91a1.942,1.942,0,0,1,2.429,1.288l7.913,25.846Z" transform="translate(-305.81 -155.255)" fill="#f2f2f2"/>
    <path id="Path_42" data-name="Path 42" d="M385.387,167.991l-9.537-31.15a4.131,4.131,0,0,0-5.161-2.742L348.142,141l-46.489,14.233-22.547,6.9a4.136,4.136,0,0,0-2.742,5.161l32.594,106.458a4.139,4.139,0,0,0,3.953,2.924,4.081,4.081,0,0,0,1.208-.182l15.456-4.731.486-.151v-.508l-.486.148-15.6,4.777a3.65,3.65,0,0,1-4.553-2.419l-32.592-106.46a3.641,3.641,0,0,1,2.419-4.553l22.547-6.9,46.489-14.231,22.547-6.9a3.643,3.643,0,0,1,4.553,2.419l9.493,31.009.151.486h.506Z" transform="translate(-276.182 -133.913)" fill="#3f3d56"/>
    <path id="Path_43" data-name="Path 43" d="M382.3,175.494a2.192,2.192,0,0,1-2.093-1.548l-3.131-10.227a2.188,2.188,0,0,1,1.452-2.732l42.77-13.094a2.19,2.19,0,0,1,2.733,1.451l3.131,10.227A2.19,2.19,0,0,1,425.7,162.3L382.934,175.4A2.182,2.182,0,0,1,382.3,175.494Z" transform="translate(-352.472 -144.419)" fill="#020887"/>
    <circle id="Ellipse_4" data-name="Ellipse 4" cx="4.862" cy="4.862" r="4.862" transform="translate(41.364 1.207)" fill="#020887"/>
    <circle id="Ellipse_5" data-name="Ellipse 5" cx="3.079" cy="3.079" r="3.079" transform="translate(43.147 2.99)" fill="#fff"/>
    <path id="Path_44" data-name="Path 44" d="M616.55,396.672H534.384a2.069,2.069,0,0,1-2.066-2.066V296.153a2.069,2.069,0,0,1,2.066-2.066H616.55a2.069,2.069,0,0,1,2.066,2.066v98.453A2.069,2.069,0,0,1,616.55,396.672Z" transform="translate(-470.052 -255.147)" fill="#e6e6e6"/>
    <path id="Path_45" data-name="Path 45" d="M551.122,274.087H499.951a4.138,4.138,0,0,0-4.133,4.133v99.133l.486-.148V278.22a3.651,3.651,0,0,1,3.646-3.646h51.322Zm44.608,0H499.951a4.138,4.138,0,0,0-4.133,4.133V389.556a4.138,4.138,0,0,0,4.133,4.133h95.779a4.138,4.138,0,0,0,4.133-4.133V278.22A4.138,4.138,0,0,0,595.729,274.087Zm3.646,115.469a3.651,3.651,0,0,1-3.646,3.646H499.951a3.651,3.651,0,0,1-3.646-3.646V278.22a3.651,3.651,0,0,1,3.646-3.646h95.779a3.651,3.651,0,0,1,3.646,3.646Z" transform="translate(-442.425 -240.009)" fill="#3f3d56"/>
    <path id="Path_46" data-name="Path 46" d="M655.735,271.159H611.006a2.19,2.19,0,0,1-2.188-2.188v-10.7a2.19,2.19,0,0,1,2.188-2.188h44.729a2.19,2.19,0,0,1,2.188,2.188v10.7a2.19,2.19,0,0,1-2.188,2.188Z" transform="translate(-527.956 -226.385)" fill="#020887"/>
    <circle id="Ellipse_6" data-name="Ellipse 6" cx="4.862" cy="4.862" r="4.862" transform="translate(100.553 20.708)" fill="#020887"/>
    <circle id="Ellipse_7" data-name="Ellipse 7" cx="2.961" cy="2.961" r="2.961" transform="translate(102.453 22.609)" fill="#fff"/>
  </g>
</svg>
