<svg xmlns="http://www.w3.org/2000/svg" width="187.82" height="210.496" viewBox="0 0 187.82 210.496">
  <g id="the_search" transform="translate(0)">
    <path id="Path_100" data-name="Path 100" d="M390.27,136.133h-1.157V104.449a18.338,18.338,0,0,0-18.338-18.338H303.649a18.338,18.338,0,0,0-18.338,18.338v173.82a18.338,18.338,0,0,0,18.338,18.338h67.126a18.338,18.338,0,0,0,18.338-18.338V158.686h1.157Z" transform="translate(-285.311 -86.111)" fill="#e6e6e6"/>
    <path id="Path_101" data-name="Path 101" d="M383.95,102.606h-8.762a6.506,6.506,0,0,1-6.024,8.963H330.707a6.506,6.506,0,0,1-6.024-8.963H316.5A13.694,13.694,0,0,0,302.805,116.3V289.865A13.694,13.694,0,0,0,316.5,303.56h67.45a13.694,13.694,0,0,0,13.694-13.694h0V116.3a13.694,13.694,0,0,0-13.694-13.694Z" transform="translate(-297.745 -97.835)" fill="#fff"/>
    <path id="a2804879-ded6-4045-b20f-1f1dde9b938b" d="M409.037,517.27H328.163a1.5,1.5,0,0,1-1.5-1.5V495.711a1.5,1.5,0,0,1,1.5-1.5h80.874a1.5,1.5,0,0,1,1.5,1.5v20.062A1.5,1.5,0,0,1,409.037,517.27Zm-80.874-22.458a.9.9,0,0,0-.9.9v20.062a.9.9,0,0,0,.9.9h80.874a.9.9,0,0,0,.9-.9V495.711a.9.9,0,0,0-.9-.9Z" transform="translate(-314.704 -376.177)" fill="#e6e6e6"/>
    <circle id="b9ad11c9-d8a0-4df6-8741-900b9ec46a35" cx="6.29" cy="6.29" r="6.29" transform="translate(17.652 123.274)" fill="#e6e6e6"/>
    <path id="bd261eec-7ae0-49b0-bf26-57ff03972605" d="M415.74,519.573a1.048,1.048,0,1,0,0,2.1h49.423a1.048,1.048,0,1,0,.04-2.1H415.74Z" transform="translate(-377.271 -394.202)" fill="#e6e6e6"/>
    <path id="e80b4447-8c34-435b-ba6c-5300a190ab24" d="M415.74,541.321a1.048,1.048,0,1,0,0,2.1h49.423a1.048,1.048,0,1,0,.034-2.1H415.74Z" transform="translate(-377.271 -409.66)" fill="#e6e6e6"/>
    <path id="e55fcb7d-3a3b-45d8-b167-72fb2263dd92" d="M409.037,633.26H328.163a1.5,1.5,0,0,1-1.5-1.5V611.7a1.5,1.5,0,0,1,1.5-1.5h80.874a1.5,1.5,0,0,1,1.5,1.5v20.062A1.5,1.5,0,0,1,409.037,633.26ZM328.163,610.8a.9.9,0,0,0-.9.9v20.062a.9.9,0,0,0,.9.9h80.874a.9.9,0,0,0,.9-.9V611.7a.9.9,0,0,0-.9-.9Z" transform="translate(-314.704 -458.619)" fill="#e6e6e6"/>
    <circle id="a50d232f-7710-43e4-8fa9-6ef0443fc454" cx="6.29" cy="6.29" r="6.29" transform="translate(17.652 156.821)" fill="#e6e6e6"/>
    <path id="e49b4965-a9e9-4371-9134-194e44e65c31" d="M415.74,635.563a1.048,1.048,0,1,0,0,2.1h49.423a1.048,1.048,0,1,0,.034-2.1H415.74Z" transform="translate(-377.271 -476.644)" fill="#e6e6e6"/>
    <path id="abc4586a-ac92-4255-aae6-84f53baad571" d="M415.74,657.311a1.048,1.048,0,1,0,0,2.1h49.423a1.048,1.048,0,1,0,.034-2.1H415.74Z" transform="translate(-377.271 -492.102)" fill="#e6e6e6"/>
    <path id="a9e593af-a319-4e97-9065-f0c2c04624d5" d="M395.84,290.138a28.444,28.444,0,0,1-28.456-28.432v-.024c0-.06,0-.122,0-.182a28.456,28.456,0,1,1,28.455,28.637h0Zm0-56.313a27.916,27.916,0,0,0-27.853,27.694c0,.064,0,.116,0,.163a27.86,27.86,0,1,0,27.86-27.857Z" transform="translate(-343.646 -190.676)" fill="#e6e6e6"/>
    <circle id="Ellipse_31" data-name="Ellipse 31" cx="11.569" cy="11.569" r="11.569" transform="translate(79.571 110.73)" fill="#fff"/>
    <path id="Path_102" data-name="Path 102" d="M563.712,512.168h-6.278a3.007,3.007,0,1,1,0-6.014h6.32a3.007,3.007,0,1,1-.04,6.014Z" transform="translate(-476.589 -384.664)" fill="#020887"/>
    <rect id="Rectangle_32" data-name="Rectangle 32" width="93.72" height="0.648" transform="translate(94.1 209.792)" fill="#3f3d56"/>
    <path id="Path_103" data-name="Path 103" d="M626.212,574.3a1.9,1.9,0,0,1-.182-.364l-1.493-4a1.882,1.882,0,0,1,1.1-2.419l33.332-12.446a1.882,1.882,0,0,1,2.419,1.1l1.493,4a1.88,1.88,0,0,1-1.1,2.419l-33.331,12.446a1.882,1.882,0,0,1-2.237-.739Z" transform="translate(-526.338 -419.348)" fill="#020887"/>
    <path id="Path_104" data-name="Path 104" d="M707.172,551.518l-13.554,5.4a1.735,1.735,0,0,0-1.184,2.082l1.573,6.3a1.735,1.735,0,0,0,2.423,1.15l13.592-6.4a1.739,1.739,0,0,0,1.019-2.232l-1.634-5.286A1.738,1.738,0,0,0,707.172,551.518Z" transform="translate(-574.644 -416.83)" fill="#2f2e41"/>
    <path id="Path_105" data-name="Path 105" d="M795.615,592.162a1.882,1.882,0,0,1-1.993-1.255l-11.6-33.634a1.88,1.88,0,0,1,1.164-2.39l4.036-1.392a1.881,1.881,0,0,1,2.39,1.164l11.6,33.635a1.882,1.882,0,0,1-1.164,2.39l-4.036,1.392A1.891,1.891,0,0,1,795.615,592.162Z" transform="translate(-638.283 -418.237)" fill="#020887"/>
    <path id="Path_106" data-name="Path 106" d="M790.632,552.9l4.453,13.9a1.735,1.735,0,0,1-.854,2.238l-5.86,2.793a1.735,1.735,0,0,1-2.428-1.138l-3.711-14.556a1.739,1.739,0,0,1,1.073-2.206l5.118-2.1A1.738,1.738,0,0,1,790.632,552.9Z" transform="translate(-638.44 -417.059)" fill="#2f2e41"/>
    <path id="Path_107" data-name="Path 107" d="M749.78,715.439h-4.269a1.882,1.882,0,0,1-1.88-1.88v-35.58a1.882,1.882,0,0,1,1.88-1.88h4.269a1.882,1.882,0,0,1,1.88,1.88v35.58a1.882,1.882,0,0,1-1.88,1.88Z" transform="translate(-611.071 -505.456)" fill="#2f2e41"/>
    <path id="Path_108" data-name="Path 108" d="M778.972,715.439H774.7a1.882,1.882,0,0,1-1.88-1.88v-35.58a1.882,1.882,0,0,1,1.88-1.88h4.269a1.882,1.882,0,0,1,1.88,1.88v35.58A1.882,1.882,0,0,1,778.972,715.439Z" transform="translate(-631.82 -505.456)" fill="#2f2e41"/>
    <path id="Path_109" data-name="Path 109" d="M753.605,585.843h-19.4a2.027,2.027,0,0,1-2.025-2.025v-31.51a11.723,11.723,0,0,1,23.446,0v31.51A2.027,2.027,0,0,1,753.605,585.843Z" transform="translate(-602.935 -409.138)" fill="#ccc"/>
    <path id="Path_110" data-name="Path 110" d="M792.175,587.133h-9.834V531.556l.183.05a13.126,13.126,0,0,1,9.651,12.636Z" transform="translate(-638.585 -402.72)" fill="#2f2e41"/>
    <path id="Path_111" data-name="Path 111" d="M736.16,587.133h-9.834V544.242a13.126,13.126,0,0,1,9.651-12.636l.183-.05Z" transform="translate(-598.771 -402.72)" fill="#2f2e41"/>
    <circle id="Ellipse_32" data-name="Ellipse 32" cx="15.479" cy="15.479" r="15.479" transform="translate(125.346 93.972)" fill="#020887"/>
    <path id="Path_112" data-name="Path 112" d="M740.67,394.851s.868-24.006-10.412-16.2c0,0-6.508-21.837-22.415,10.846l-4.628,4.628s20.825-2.892,40.2,6.074Z" transform="translate(-582.344 -288.964)" fill="#2f2e41"/>
    <path id="Path_113" data-name="Path 113" d="M763.213,466.837a5.322,5.322,0,0,1-3.063-.729,2.352,2.352,0,0,1-.926-1.756,1.582,1.582,0,0,1,.538-1.3,2.042,2.042,0,0,1,1.932-.278l-.781-5.705.573-.078.918,6.707-.479-.22a1.751,1.751,0,0,0-1.79.016,1.017,1.017,0,0,0-.333.837,1.777,1.777,0,0,0,.689,1.31,4.785,4.785,0,0,0,2.738.618Z" transform="translate(-622.152 -349.72)" fill="#2f2e41"/>
    <rect id="Rectangle_33" data-name="Rectangle 33" width="3.115" height="0.578" transform="translate(132.812 107.84)" fill="#2f2e41"/>
    <rect id="Rectangle_34" data-name="Rectangle 34" width="3.115" height="0.578" transform="translate(142.646 107.84)" fill="#2f2e41"/>
    <path id="Path_114" data-name="Path 114" d="M622.292,565.94a1.735,1.735,0,0,1-2.3-.844l-9.982-21.514a1.735,1.735,0,0,1,3.148-1.461l9.982,21.514A1.735,1.735,0,0,1,622.292,565.94Z" transform="translate(-515.979 -409.514)" fill="#3f3d56"/>
    <path id="Path_115" data-name="Path 115" d="M576.2,502.161A1.157,1.157,0,0,1,575.043,501V486.267H560.582a1.157,1.157,0,1,1,0-2.314H576.2a1.157,1.157,0,0,1,1.157,1.157V501a1.157,1.157,0,0,1-1.157,1.157Z" transform="translate(-480.143 -368.885)" fill="#020887"/>
    <path id="Path_116" data-name="Path 116" d="M569.887,487.487a13.883,13.883,0,1,1,6.751-18.437A13.883,13.883,0,0,1,569.887,487.487Zm-10.225-22.039a10.412,10.412,0,1,0,13.827,5.063,10.412,10.412,0,0,0-13.827-5.063Z" transform="translate(-473.556 -352.575)" fill="#3f3d56"/>
  </g>
</svg>
